<svg width="58" height="58" viewBox="0 0 58 58" fill="none" xmlns="http://www.w3.org/2000/svg">
<g id="ant-design:close-circle-filled">
<path id="Vector" d="M29 3.625C14.9871 3.625 3.625 14.9871 3.625 29C3.625 43.0129 14.9871 54.375 29 54.375C43.0129 54.375 54.375 43.0129 54.375 29C54.375 14.9871 43.0129 3.625 29 3.625ZM38.3684 38.6402L34.6301 38.6232L29 31.9113L23.3756 38.6176L19.6316 38.6346C19.3824 38.6346 19.1785 38.4363 19.1785 38.1814C19.1785 38.0738 19.2182 37.9719 19.2861 37.8869L26.6551 29.1076L19.2861 20.334C19.2177 20.251 19.1797 20.147 19.1785 20.0395C19.1785 19.7902 19.3824 19.5863 19.6316 19.5863L23.3756 19.6033L29 26.3152L34.6244 19.609L38.3627 19.592C38.6119 19.592 38.8158 19.7902 38.8158 20.0451C38.8158 20.1527 38.7762 20.2547 38.7082 20.3396L31.3506 29.1133L38.7139 37.8926C38.7818 37.9775 38.8215 38.0795 38.8215 38.1871C38.8215 38.4363 38.6176 38.6402 38.3684 38.6402Z" fill="#11414A"/>
</g>
</svg>
