<svg width="1280" height="203" viewBox="0 0 1280 203" fill="none" xmlns="http://www.w3.org/2000/svg">
<mask id="mask0_1221_8737" style="mask-type:luminance" maskUnits="userSpaceOnUse" x="750" y="-121" width="576" height="247">
<path d="M750.117 -121H1325.64V125.797H750.117V-121Z" fill="white"/>
</mask>
<g mask="url(#mask0_1221_8737)">
<path d="M1325.64 82.5781C1325.64 102.016 1309.87 117.776 1290.42 117.776C1280.41 117.776 1271.32 113.521 1264.87 106.849C1253.93 115.13 1240.35 120.078 1225.62 120.078C1209.27 120.078 1194.31 113.979 1182.8 103.974C1173.82 112.599 1161.62 117.776 1148.27 117.776C1127.09 117.776 1108.9 104.547 1101.65 85.9114C1091.98 88.901 1081.62 90.3958 1070.91 90.3958C1054.57 90.3958 1039.03 86.7187 1025.22 80.0468C1023.03 105.583 1001.51 125.599 975.378 125.599C964.674 125.599 954.773 122.26 946.602 116.51C934.747 122.375 921.279 125.599 907.122 125.599C880.763 125.599 857.049 114.323 840.706 96.2656C831.148 104.661 818.607 109.724 804.794 109.724C774.518 109.839 750.117 85.3385 750.117 55.3125C750.117 25.2916 774.518 0.786423 804.674 0.786423C811.122 0.786423 817.336 1.93746 823.091 4.01038C835.987 -29.698 868.674 -53.7396 907.008 -53.7396C929.68 -53.7396 950.398 -45.3386 966.284 -31.4219C974.112 -82.0365 1017.97 -120.802 1070.8 -120.802C1118.22 -120.802 1158.28 -89.6302 1171.75 -46.7188C1189.47 -40.8542 1202.94 -25.323 1205.59 -6.34379C1211.8 -8.30212 1218.48 -9.44795 1225.39 -9.44795C1258.54 -9.44795 1285.82 15.3958 1289.73 47.375C1289.85 47.375 1290.08 47.375 1290.19 47.375C1309.87 47.2604 1325.64 63.1354 1325.64 82.5781Z" fill="#DAEFF3"/>
</g>
<mask id="mask1_1221_8737" style="mask-type:luminance" maskUnits="userSpaceOnUse" x="317" y="-121" width="534" height="324">
<path d="M317.562 -121H850.12V202.651H317.562V-121Z" fill="white"/>
</mask>
<g mask="url(#mask1_1221_8737)">
<path d="M774.87 -18.0625C764.818 -18.0625 755.276 -16.0886 746.49 -12.5365C738.172 -45.1198 708.604 -69.2188 673.443 -69.2188C658.344 -69.2188 644.271 -64.7605 632.484 -57.1094C619.005 -94.2657 583.37 -120.849 541.542 -120.849C489.984 -120.849 447.844 -80.5 444.964 -29.6198C435.349 -32.8542 425.057 -34.5886 414.339 -34.5886C360.88 -34.5886 317.562 8.76038 317.562 62.2083C317.562 115.656 360.88 159.005 414.297 159.005C428.646 159.005 442.245 155.849 454.464 150.25C474.292 181.646 509.26 202.552 549.115 202.552C584.474 202.552 616.005 186.104 636.505 160.464C647.661 171.547 662.995 178.37 679.948 178.37C711.286 178.37 737.104 155.021 741.089 124.766C751.255 129.854 762.729 132.776 774.87 132.776C816.495 132.776 850.24 99.0104 850.24 57.3593C850.24 15.7031 816.495 -18.0625 774.87 -18.0625Z" fill="#DAEFF3"/>
</g>
<mask id="mask2_1221_8737" style="mask-type:luminance" maskUnits="userSpaceOnUse" x="-116" y="-121" width="534" height="324">
<path d="M-116 -121H417.562V202.734H-116V-121Z" fill="white"/>
</mask>
<g mask="url(#mask2_1221_8737)">
<path d="M357.641 16.6823C360.38 9.43755 361.917 1.58858 361.917 -6.63538C361.917 -42.875 332.578 -72.276 296.328 -72.276C288.938 -72.276 281.885 -71.0364 275.245 -68.7812C258.995 -99.802 226.464 -120.979 189.016 -120.979C143.505 -120.979 105.307 -89.7395 94.651 -47.5312C83.7292 -57.0312 69.5104 -62.8125 53.901 -62.8125C19.6042 -62.8125 -8.19791 -34.9895 -8.19791 -0.666626C-8.19791 -0.140579 -8.19791 0.349007 -8.16145 0.875046C-18.401 -4.5312 -30.0729 -7.651 -42.4948 -7.651C-83.0885 -7.61454 -116 25.323 -116 65.9532C-116 106.583 -83.0885 139.552 -42.4531 139.552C-35.4375 139.552 -28.6458 138.536 -22.2292 136.698C-13.7135 170.87 17.1302 196.219 53.9375 196.219C78.026 196.219 99.526 185.365 113.938 168.281C123.99 188.672 144.969 202.677 169.208 202.677C193.443 202.677 213.182 189.458 223.573 170.042C223.911 169.932 224.25 169.854 224.589 169.745C234.229 179.62 247.703 185.776 262.599 185.776C288.865 185.776 310.661 166.703 314.979 141.656C325.182 147.891 337.193 151.458 350.062 151.458C387.359 151.458 417.641 121.188 417.641 83.823C417.641 49.0886 391.448 20.4375 357.714 16.6459L357.641 16.6823Z" fill="#DAEFF3"/>
</g>
</svg>
