<svg width="423" height="267" viewBox="0 0 423 267" fill="none" xmlns="http://www.w3.org/2000/svg">
<path d="M419.692 143.011C419.423 141.597 419.14 140.198 418.844 138.816C411.45 103.777 396.557 67.5922 370.007 42.8645C358.505 32.1716 344.596 23.9995 329.098 21.056C310.177 17.47 290.505 22.4383 273.117 30.8137C255.73 39.1891 240.126 50.752 224.014 61.3717C213.609 68.2265 202.607 74.8292 190.329 76.8214C175.63 79.2039 160.591 74.7316 145.763 76.1546C122.515 78.3827 102.028 95.849 93.6487 117.812C85.2698 139.775 88.305 165.267 99.3477 186.002C110.39 206.738 128.811 222.887 149.67 233.531C178.528 248.297 212.632 252.916 244.033 244.915C259.37 241.012 274.175 234.181 289.964 233.897C309.547 233.547 327.903 243.305 347.276 246.004C365.487 248.533 384.909 244.378 399.398 232.994C426.27 211.852 425.512 173.472 419.692 143.011Z" fill="#EDFCFC"/>
<path opacity="0.7" d="M419.692 143.011C419.423 141.597 419.14 140.198 418.844 138.816C411.45 103.777 396.557 67.5922 370.007 42.8645C358.505 32.1716 344.596 23.9995 329.098 21.056C310.177 17.47 290.505 22.4383 273.117 30.8137C255.73 39.1891 240.126 50.752 224.014 61.3717C213.609 68.2265 202.607 74.8292 190.329 76.8214C175.63 79.2039 160.591 74.7316 145.763 76.1546C122.515 78.3827 102.028 95.849 93.6487 117.812C85.2698 139.775 88.305 165.267 99.3477 186.002C110.39 206.738 128.811 222.887 149.67 233.531C178.528 248.297 212.632 252.916 244.033 244.915C259.37 241.012 274.175 234.181 289.964 233.897C309.547 233.547 327.903 243.305 347.276 246.004C365.487 248.533 384.909 244.378 399.398 232.994C426.27 211.852 425.512 173.472 419.692 143.011Z" fill="#EDFCFC"/>
<path d="M363.068 57.0785C360.445 55.6312 359.25 56.8346 358.297 55.6312C357.345 54.4277 360.921 51.3052 353.761 48.1827C353.761 48.1827 353.285 41.4499 343.501 41.2141C333.718 40.9783 336.341 47.9388 333.718 49.622C331.094 51.3052 330.376 48.6625 327.752 50.3457C325.129 52.0289 326.324 55.3953 324.176 55.8751C322.029 56.3549 319.163 53.7121 316.54 55.3953C313.917 57.0785 313.917 58.5178 312.722 58.5178C311.527 58.5178 309.138 57.5583 307.709 58.5178C306.28 59.4773 304.609 60.6808 304.609 60.6808H364.981C364.981 60.6808 365.691 58.4772 363.068 57.0785Z" fill="white"/>
<path opacity="0.5" d="M363.068 57.0785C360.445 55.6312 359.25 56.8346 358.297 55.6312C357.345 54.4277 360.921 51.3052 353.761 48.1827C353.761 48.1827 353.285 41.4499 343.501 41.2141C333.718 40.9783 336.341 47.9388 333.718 49.622C331.094 51.3052 330.376 48.6625 327.752 50.3457C325.129 52.0289 326.324 55.3953 324.176 55.8751C322.029 56.3549 319.163 53.7121 316.54 55.3953C313.917 57.0785 313.917 58.5178 312.722 58.5178C311.527 58.5178 309.138 57.5583 307.709 58.5178C306.28 59.4773 304.609 60.6808 304.609 60.6808H364.981C364.981 60.6808 365.691 58.4772 363.068 57.0785Z" fill="white"/>
<path d="M260.834 216.455C258.202 215.007 257.016 216.211 256.055 215.007C255.095 213.804 258.679 210.681 251.527 207.559C251.527 207.559 251.05 200.826 241.267 200.59C231.483 200.355 234.107 207.315 231.484 208.998C228.86 210.681 228.142 208.039 225.518 209.722C222.895 211.405 224.081 214.772 221.934 215.251C219.787 215.731 216.921 213.088 214.298 214.772C211.674 216.455 211.674 217.894 210.48 217.894C209.285 217.894 206.904 216.935 205.467 217.894C204.03 218.854 202.367 220.057 202.367 220.057H262.739C262.739 220.057 263.457 217.853 260.834 216.455Z" fill="white"/>
<path opacity="0.5" d="M260.834 216.455C258.202 215.007 257.016 216.211 256.055 215.007C255.095 213.804 258.679 210.681 251.527 207.559C251.527 207.559 251.05 200.826 241.267 200.59C231.483 200.355 234.107 207.315 231.484 208.998C228.86 210.681 228.142 208.039 225.518 209.722C222.895 211.405 224.081 214.772 221.934 215.251C219.787 215.731 216.921 213.088 214.298 214.772C211.674 216.455 211.674 217.894 210.48 217.894C209.285 217.894 206.904 216.935 205.467 217.894C204.03 218.854 202.367 220.057 202.367 220.057H262.739C262.739 220.057 263.457 217.853 260.834 216.455Z" fill="white"/>
<path d="M212.052 189.621C207.944 187.369 206.079 189.247 204.586 187.369C203.092 185.49 208.686 180.595 197.49 175.708C197.49 175.708 196.748 165.178 181.435 164.804C166.122 164.43 170.239 175.334 166.098 177.969C161.957 180.603 160.875 176.464 156.766 179.091C152.657 181.717 154.522 186.995 151.164 187.743C147.806 188.491 143.326 184.36 139.217 186.995C135.109 189.629 135.109 191.873 133.244 191.873C131.379 191.873 127.642 190.369 125.406 191.873C123.17 193.378 120.562 195.256 120.562 195.256H215.007C215.007 195.256 216.153 191.906 212.052 189.621Z" fill="white"/>
<path opacity="0.5" d="M212.052 189.621C207.944 187.369 206.079 189.247 204.586 187.369C203.092 185.49 208.686 180.595 197.49 175.708C197.49 175.708 196.748 165.178 181.435 164.804C166.122 164.43 170.239 175.334 166.098 177.969C161.957 180.603 160.875 176.464 156.766 179.091C152.657 181.717 154.522 186.995 151.164 187.743C147.806 188.491 143.326 184.36 139.217 186.995C135.109 189.629 135.109 191.873 133.244 191.873C131.379 191.873 127.642 190.369 125.406 191.873C123.17 193.378 120.562 195.256 120.562 195.256H215.007C215.007 195.256 216.153 191.906 212.052 189.621Z" fill="white"/>
<path d="M203.469 144.703C203.469 144.703 235.354 193.085 243.022 193.899C250.691 194.712 274.907 169.504 274.907 169.504L268.046 167.878L245.194 183.442C245.194 183.442 225.667 159.291 208.506 140.833L203.469 144.703Z" fill="white" stroke="#231F20" stroke-width="2" stroke-linecap="round" stroke-linejoin="round"/>
<path d="M209.153 130.261C209.153 130.261 215.546 130.538 215.272 133.343C214.997 136.148 215.272 143.711 213.601 145.117C211.93 146.524 209.427 147.077 208.871 144.304C208.314 141.531 209.153 130.261 209.153 130.261Z" fill="white" stroke="#231F20" stroke-width="2" stroke-linecap="round" stroke-linejoin="round"/>
<path d="M207.483 143.459C207.483 143.459 207.2 151.867 206.676 152.704C206.151 153.542 202.22 156.632 199.718 156.071C197.215 155.51 198.047 152.989 198.047 151.59V129.448H207.507L207.483 143.459Z" fill="#231F20" stroke="#231F20" stroke-linecap="round" stroke-linejoin="round"/>
<path d="M194.408 146.524C194.408 146.524 192.463 150.167 194.125 152.973C195.788 155.778 200.527 155.778 202.48 154.371C204.434 152.964 203.029 151.013 201.366 150.452C199.703 149.891 197.467 148.484 197.467 146.809C197.467 145.134 195.239 145.418 194.408 146.524Z" fill="white" stroke="#231F20" stroke-width="2" stroke-linecap="round" stroke-linejoin="round"/>
<path d="M192.891 141.206C192.891 143.125 193.214 146.346 194.715 147.712C196.41 149.216 204.208 149.338 207.63 147.037C211.053 144.735 208.777 140.775 206.185 141.028C204.038 141.239 201.738 140.71 199.558 140.434C198.331 140.279 194.005 139.312 193.157 140.214C192.964 140.497 192.881 140.842 192.923 141.182L192.891 141.206Z" fill="white" stroke="#231F20" stroke-width="2" stroke-linecap="round" stroke-linejoin="round"/>
<path d="M191.934 134.262C191.668 136.198 191.547 139.466 193.121 140.881C194.905 142.508 204.147 142.963 208.514 140.816C212.881 138.67 210.807 134.547 207.707 134.685C205.132 134.791 202.476 134.14 199.942 133.758C198.513 133.547 193.484 132.368 192.378 133.238C192.118 133.493 191.965 133.84 191.95 134.205L191.934 134.262Z" fill="white" stroke="#231F20" stroke-width="2" stroke-linecap="round" stroke-linejoin="round"/>
<path d="M192.471 124.684C191.785 126.514 190.946 129.677 192.173 131.409C193.569 133.368 202.473 135.889 207.195 134.767C211.917 133.645 210.819 129.164 207.752 128.603C205.217 128.14 202.771 126.912 200.382 125.977C199.034 125.448 194.425 123.188 193.117 123.781C192.816 123.965 192.594 124.255 192.495 124.595L192.471 124.684Z" fill="white" stroke="#231F20" stroke-width="2" stroke-linecap="round" stroke-linejoin="round"/>
<path d="M266.5 265.211L291.919 169.456H300.532L273.539 266" fill="#231F20"/>
<path d="M266.5 265.211L291.919 169.456H300.532L273.539 266" stroke="#231F20" stroke-linecap="round" stroke-linejoin="round"/>
<path d="M283.331 256.055L307.959 169.064L300.525 169.455L273.531 265.999" fill="white"/>
<path d="M283.331 256.055L307.959 169.064L300.525 169.455L273.531 265.999" stroke="#11414A" stroke-width="2" stroke-linecap="round" stroke-linejoin="round"/>
<path d="M280.961 264.423L282.099 260.406" stroke="#231F20" stroke-width="2" stroke-linecap="round" stroke-linejoin="round"/>
<path d="M249.492 191.947C249.492 191.947 252.277 196.151 255.619 196.712C258.961 197.273 294.293 169.244 294.293 169.244L279.819 170.919L249.492 191.947Z" fill="white" stroke="#231F20" stroke-width="2" stroke-linecap="round" stroke-linejoin="round"/>
<path d="M227.047 146.996C227.047 146.996 233.698 91.4336 248.567 72.1215C264.817 50.9797 297.468 68.1858 290.817 102.07C285.715 128.09 270.863 174.578 270.863 174.578L227.047 146.996Z" fill="#2EB4CC" stroke="#231F20" stroke-miterlimit="10"/>
<path d="M274.782 65.0312L361.703 92.6782C364.549 93.5689 367.151 95.1107 369.307 97.183C374.788 102.501 382.965 113.942 376.096 130.815C370.534 144.09 363.018 156.445 353.8 167.463L270.875 174.578L287.697 109.161C287.697 109.161 295.511 80.3997 274.782 65.0312Z" fill="white"/>
<path d="M315.538 141.995C294.631 151.867 283.451 150.126 277.89 147.28L270.875 174.578L353.808 167.487C363.026 156.469 370.542 144.114 376.104 130.839C377.007 128.64 377.694 126.358 378.154 124.025C357.998 119.243 342.015 129.497 315.538 141.995Z" fill="#38E9FC" stroke="#231F20" stroke-miterlimit="10"/>
<path opacity="0.5" d="M315.538 141.995C294.631 151.867 283.451 150.126 277.89 147.28L270.875 174.578L353.808 167.487C363.026 156.469 370.542 144.114 376.104 130.839C377.007 128.64 377.694 126.358 378.154 124.025C357.998 119.243 342.015 129.497 315.538 141.995Z" fill="white"/>
<path d="M274.782 65.0312L361.703 92.6782C364.549 93.5689 367.151 95.1107 369.307 97.183C374.788 102.501 382.965 113.942 376.096 130.815C370.534 144.09 363.018 156.445 353.8 167.463L270.875 174.578L287.697 109.161C287.697 109.161 295.511 80.3997 274.782 65.0312Z" stroke="#231F20" stroke-width="2" stroke-linecap="round" stroke-linejoin="round"/>
<path d="M323.634 73.2769L310.024 116.065C307.707 116.447 305.447 118.374 304.325 121.212C302.775 125.131 303.978 129.303 307.013 130.522C310.048 131.742 313.77 129.546 315.319 125.643C316.595 122.391 316.006 119.024 314.06 117.244L323.634 84.295L336.985 88.8811L340.634 79.408L323.634 73.2769Z" fill="#231F20" stroke="#11414A" stroke-linecap="round" stroke-linejoin="round"/>
<path d="M240.477 111.186C240.477 111.186 246.547 117.919 246.854 121.277C247.16 124.635 241.695 133.474 241.695 133.474C241.695 133.474 252.924 140.508 263.547 135.613C274.17 130.718 279.328 109.934 279.328 109.934C279.328 109.934 266.582 116.048 261.723 116.048C256.863 116.048 240.477 111.186 240.477 111.186Z" fill="#231F20" stroke="#231F20" stroke-linecap="round" stroke-linejoin="round"/>
<path d="M263.533 135.645C266.463 134.295 268.973 131.733 271.08 128.741C270.93 128.095 270.595 127.508 270.118 127.051C269.64 126.595 269.04 126.289 268.392 126.171C262.015 124.944 255.339 131.977 255.339 131.977C254.741 133.709 254.377 135.514 254.258 137.344C257.44 137.541 260.623 136.958 263.533 135.645Z" fill="#DAEFF3" stroke="#231F20" stroke-miterlimit="10"/>
<path d="M254.732 130.148C251.312 130.015 247.969 129.085 244.965 127.432C243.488 130.571 241.68 133.506 241.68 133.506C241.68 133.506 252.908 140.54 263.531 135.645C266.398 134.167 268.851 131.989 270.667 129.31C268.181 129.587 260.076 130.4 254.732 130.148Z" fill="white" stroke="#231F20" stroke-linecap="round" stroke-linejoin="round"/>
<path d="M261.723 116.081C256.879 116.081 240.477 111.202 240.477 111.202C242.463 113.422 244.236 115.826 245.772 118.382C249.808 120.008 256.903 122.521 262.635 122.521C267.565 122.475 272.383 121.029 276.535 118.35C277.638 115.605 278.57 112.794 279.328 109.934C279.328 109.934 266.582 116.081 261.723 116.081Z" fill="white" stroke="#231F20" stroke-linecap="round" stroke-linejoin="round"/>
<path d="M260.5 102.013C260.5 102.013 262.324 95.597 267.482 94.979C272.641 94.361 274.158 98.0364 274.158 98.0364C274.158 98.0364 264.415 98.0364 260.5 102.013Z" fill="#231F20"/>
<path d="M275.375 108.128L282.963 110.884" stroke="#231F20" stroke-linecap="round" stroke-linejoin="round"/>
<path d="M251.987 95.8653C251.607 98.0201 250.631 99.6545 249.799 99.5081C248.968 99.3618 248.621 97.4915 248.992 95.3286C249.363 93.1656 250.356 91.5312 251.18 91.6776C252.003 91.8239 252.374 93.6698 251.987 95.8653Z" fill="#231F20"/>
<path d="M261.708 94.3702C261.708 94.3702 261.409 90.7029 269.295 90.7029C277.182 90.7029 278.707 89.784 275.672 85.824C272.637 81.864 259.891 83.9782 261.708 94.3702Z" fill="#231F20"/>
<path d="M258.687 83.3675C258.687 83.3675 258.081 78.1633 253.23 78.1633C248.379 78.1633 245.634 83.9773 245.335 82.1396C245.037 80.3019 246.853 73.8862 253.529 73.2763C260.204 72.6665 258.687 83.3675 258.687 83.3675Z" fill="#231F20"/>
<path d="M292.926 79.1228C294.227 82.4153 295.017 85.8903 295.267 89.4253C297.204 111.73 277.508 172.529 277.508 172.529" stroke="#231F20" stroke-linecap="round" stroke-linejoin="round"/>
<path d="M285.305 70.1787C287.06 70.9871 288.592 72.2153 289.769 73.7565" stroke="#231F20" stroke-linecap="round" stroke-linejoin="round"/>
<path d="M353.87 161.812C351.948 164.723 350.641 166.691 350.641 166.691" stroke="#231F20" stroke-linecap="round" stroke-linejoin="round"/>
<path d="M357.005 92.2151C357.005 92.2151 371.68 100.582 373.618 112.853C375.555 125.123 370.849 131.555 368.08 138.231C366.466 142.061 361.001 150.835 356.602 157.633" stroke="#231F20" stroke-linecap="round" stroke-linejoin="round"/>
<path d="M242.43 139.743C242.43 139.743 246.821 144.159 256.685 143.053C256.685 143.053 246.821 147.468 242.43 139.743Z" fill="#231F20"/>
<path d="M153.789 136.173C153.789 136.173 179.483 122.602 226.382 130.92C228.539 131.301 230.757 130.805 232.551 129.542C234.346 128.278 235.57 126.35 235.956 124.179L236.634 120.365C236.96 118.535 236.669 116.648 235.807 115.004C234.946 113.359 233.563 112.052 231.879 111.291C219.424 105.656 190.445 90.027 175.213 61.0627L153.789 136.173Z" fill="#38E9FC" stroke="#231F20" stroke-miterlimit="10"/>
<path d="M176.727 76.7888C176.727 76.7888 189.271 96.6133 210.097 103.793" stroke="white" stroke-width="2" stroke-linecap="round" stroke-linejoin="round"/>
<path d="M231.881 111.291C224.594 107.97 217.598 104.037 210.966 99.5327C213.154 106.575 213.783 117.219 204.734 128.432C211.995 128.806 219.226 129.637 226.384 130.92C228.54 131.301 230.759 130.805 232.553 129.542C234.348 128.278 235.572 126.35 235.958 124.179L236.636 120.366C236.961 118.535 236.67 116.648 235.809 115.004C234.947 113.359 233.565 112.052 231.881 111.291Z" fill="#231F20" stroke="#231F20" stroke-linecap="round" stroke-linejoin="round"/>
<path d="M174.375 101.774C181.691 78.1988 180.309 56.7849 171.288 53.9442C162.267 51.1034 149.024 67.9117 141.708 91.4864C134.392 115.061 135.774 136.475 144.794 139.316C153.815 142.156 167.059 125.348 174.375 101.774Z" fill="#231F20" stroke="#231F20" stroke-linecap="round" stroke-linejoin="round"/>
<path d="M170.033 101.403C176.651 80.2936 175.915 61.2399 168.389 58.8458C160.863 56.4517 149.397 71.6238 142.779 92.7336C136.162 113.843 136.898 132.897 144.424 135.291C151.95 137.685 163.416 122.513 170.033 101.403Z" fill="white" stroke="#231F20" stroke-linecap="round" stroke-linejoin="round"/>
<path d="M173.767 88.4902L166.26 88.0918L160.609 107.461L166.575 111.795C168.153 108.158 169.533 104.436 170.708 100.647C171.957 96.6569 172.979 92.598 173.767 88.4902Z" fill="#231F20" stroke="#231F20" stroke-linecap="round" stroke-linejoin="round"/>
<path d="M166.672 98.7277C165.122 104.078 162.418 107.989 160.626 107.461C158.834 106.932 158.648 102.175 160.198 96.825C161.748 91.4745 164.46 87.5632 166.244 88.0918C168.028 88.6203 168.222 93.3854 166.672 98.7277Z" fill="white" stroke="#231F20" stroke-linecap="round" stroke-linejoin="round"/>
<path d="M252.565 195.59C248.391 193.63 214.165 132.246 212.204 128.912C210.242 125.578 210.815 120.78 212.761 116.3C214.706 111.819 214.706 103.403 213.568 101.72C212.43 100.037 209.023 98.3212 209.023 98.3212C209.023 98.3212 209.677 97.5081 211.066 95.8411C212.454 94.1742 215.796 95.2801 215.796 95.2801C218.298 93.3123 220.534 96.516 220.534 96.516C223.319 94.8328 224.7 98.0773 224.7 98.0773C225.677 98.1322 226.629 98.4102 227.484 98.8904C229.801 100.403 229.43 107.022 229.43 107.022C229.43 107.022 231.932 107.583 232.489 109.266C233.113 111.972 232.919 114.804 231.932 117.398C230.818 120.203 223.86 128.611 223.86 128.611L258.36 188.312" fill="white"/>
<path d="M252.565 195.59C248.391 193.63 214.165 132.246 212.204 128.912C210.242 125.578 210.815 120.78 212.761 116.3C214.706 111.819 214.706 103.403 213.568 101.72C212.43 100.037 209.023 98.3212 209.023 98.3212C209.023 98.3212 209.677 97.5081 211.066 95.8411C212.454 94.1742 215.796 95.2801 215.796 95.2801C218.298 93.3123 220.534 96.516 220.534 96.516C223.319 94.8328 224.7 98.0773 224.7 98.0773C225.677 98.1322 226.629 98.4102 227.484 98.8904C229.801 100.403 229.43 107.022 229.43 107.022C229.43 107.022 231.932 107.583 232.489 109.266C233.113 111.972 232.919 114.804 231.932 117.398C230.818 120.203 223.86 128.611 223.86 128.611L258.36 188.312" stroke="#231F20" stroke-width="2" stroke-linecap="round" stroke-linejoin="round"/>
<path d="M215.828 95.2964C215.828 95.2964 219.824 97.8903 219.824 100.175C219.867 101.939 220.015 103.699 220.268 105.444" stroke="#231F20" stroke-linecap="round" stroke-linejoin="round"/>
<path d="M220.57 96.4919C220.57 96.4919 222.992 99.0533 223.113 100.558C223.234 102.062 223.565 106.729 223.565 106.729" stroke="#231F20" stroke-linecap="round" stroke-linejoin="round"/>
<path d="M224.727 98.053C225.558 99.2855 226.03 100.728 226.091 102.216C226.107 103.776 226.207 105.334 226.389 106.884" stroke="#231F20" stroke-linecap="round" stroke-linejoin="round"/>
<path d="M229.453 107.022C229.453 107.022 230.575 114.259 230.123 115.771" stroke="#231F20" stroke-linecap="round" stroke-linejoin="round"/>
<path d="M100.574 32.3738L100.619 23.1479L131.756 56.3685L132.762 57.4427L132.618 55.9779L131.919 48.911L154.988 81.489L120.37 54.6203L119.569 53.9985L119.564 55.0124L119.518 64.4113L58.3517 11.7994L81.0569 25.6106L82.6481 26.5785L81.755 24.9438L71.2548 5.72615L99.73 32.7337L100.568 33.5285L100.574 32.3738Z" fill="#11414A" stroke="#38E9FC"/>
<path d="M78.9471 115.697L72.124 109.508L117.574 108.408L119.042 108.372L117.857 107.503L112.142 103.31L151.731 107.809L108.679 115.747L107.683 115.931L108.433 116.611L115.384 122.915L35.5013 133.514L60.9046 125.766L62.6849 125.223L60.8733 124.799L39.5944 119.824L78.653 116.567L79.8011 116.471L78.9471 115.697Z" fill="#11414A" stroke="#38E9FC"/>
<path d="M67.8023 64.6242L63.6404 53.5494L115.023 78.5056L116.346 79.1481L115.689 77.8319L111.521 69.4805L154.012 97.8874L100.874 81.7921L99.9038 81.4983L100.26 82.4471L104.483 93.6837L8.04483 59.0787L42.1654 65.3015L43.9963 65.6354L42.5798 64.4286L21.179 46.1964L67.1425 65.2625L68.2083 65.7047L67.8023 64.6242Z" fill="#11414A" stroke="#38E9FC"/>
</svg>
