<svg width="50" height="50" viewBox="0 0 50 50" fill="none" xmlns="http://www.w3.org/2000/svg">
<path d="M44.9982 49.136C45.1849 49.136 45.3716 49.1258 45.5567 49.1046C45.7418 49.0834 45.9254 49.0521 46.1073 49.0097C46.2893 48.9673 46.4682 48.914 46.6439 48.8513C46.8196 48.7885 46.9906 48.7148 47.1576 48.6324C47.3247 48.5493 47.4871 48.4567 47.6432 48.3555C47.8 48.2536 47.9499 48.143 48.0934 48.0237C48.2369 47.9053 48.3734 47.7782 48.5029 47.6433C48.6315 47.5084 48.7523 47.3664 48.8652 47.2174C48.9774 47.0683 49.0809 46.9138 49.1759 46.753C49.27 46.5922 49.3555 46.4259 49.4308 46.2549C49.5061 46.0847 49.5712 45.9098 49.6269 45.7317C49.6818 45.5537 49.7265 45.3725 49.7602 45.189C49.7947 45.0054 49.8183 44.8211 49.8308 44.6344C49.8442 44.4485 49.8457 44.2618 49.8371 44.0759C49.8285 43.8892 49.8089 43.7041 49.7783 43.5198C49.7485 43.3354 49.7077 43.1535 49.6559 42.9746C49.6049 42.795 49.543 42.6193 49.4716 42.4467C49.4002 42.2742 49.3186 42.1071 49.2276 41.9439C49.1366 41.7808 49.0362 41.6239 48.9264 41.4725C48.8174 41.3211 48.6997 41.1768 48.5734 41.0395C48.4479 40.9015 48.3138 40.7721 48.1726 40.6497C48.0322 40.5273 47.884 40.4136 47.7302 40.3093C47.5757 40.2042 47.4157 40.1085 47.2502 40.0214C47.0855 39.9351 46.9153 39.8583 46.7411 39.7916C46.567 39.7249 46.3889 39.6684 46.2085 39.6222C46.0273 39.5759 45.8446 39.5398 45.6595 39.5147C45.4751 39.4896 45.2892 39.4755 45.1025 39.4715C44.9159 39.4684 44.7299 39.4755 44.5441 39.4935C44.3582 39.5116 44.1738 39.5398 43.9918 39.579C43.8091 39.619 43.6295 39.6684 43.453 39.7288C43.2765 39.7884 43.1039 39.859 42.9353 39.939C42.7666 40.0191 42.6035 40.1085 42.445 40.2081L31.1946 28.9388C31.3577 28.7301 31.5114 28.5144 31.655 28.2925C31.7985 28.0705 31.9319 27.8422 32.0542 27.6077C32.1774 27.3732 32.2896 27.1339 32.3908 26.8892C32.4919 26.6452 32.5821 26.3966 32.6614 26.144C32.7398 25.8914 32.8073 25.6357 32.8629 25.3769C32.9186 25.118 32.9618 24.8576 32.9939 24.5949C33.0261 24.3321 33.0465 24.0685 33.0543 23.8042C33.063 23.5399 33.059 23.2755 33.0434 23.0112C33.0277 22.7468 32.9994 22.4841 32.9602 22.2229C32.921 21.9609 32.8692 21.702 32.8065 21.4448C32.7437 21.1875 32.6692 20.9341 32.5829 20.6839C32.4974 20.4337 32.4002 20.1874 32.2919 19.9466C32.1837 19.705 32.0644 19.4689 31.935 19.2383C31.8056 19.0069 31.666 18.7825 31.5162 18.5645C31.3656 18.3464 31.2063 18.1362 31.0377 17.9323C30.8683 17.7283 30.691 17.533 30.5043 17.3455L35.4781 10.9904C35.5667 11.032 35.6562 11.0704 35.7471 11.1065C35.8381 11.1426 35.9307 11.1763 36.0232 11.2061C36.1166 11.2367 36.2107 11.265 36.3048 11.2893C36.3998 11.3144 36.4954 11.3364 36.5911 11.3552C36.6876 11.374 36.7841 11.3905 36.8806 11.403C36.9778 11.4164 37.0751 11.4266 37.1732 11.4336C37.2704 11.4407 37.3685 11.4454 37.4657 11.4462C37.5638 11.4477 37.6618 11.4462 37.7599 11.4415C37.8571 11.4368 37.9552 11.4289 38.0525 11.4187C38.1497 11.4077 38.2462 11.3944 38.3435 11.3779C38.4399 11.3615 38.5356 11.3418 38.6306 11.3199C38.7262 11.2971 38.8204 11.272 38.9145 11.2438C39.0086 11.2163 39.1012 11.185 39.193 11.1512C39.2847 11.1175 39.3757 11.0814 39.4659 11.0422C39.5553 11.003 39.644 10.9606 39.731 10.9167C39.8181 10.872 39.9036 10.8249 39.9883 10.7747C40.0723 10.7253 40.1554 10.6728 40.2362 10.6179C40.317 10.5629 40.397 10.5057 40.4746 10.4461C40.5523 10.3865 40.6276 10.3245 40.7013 10.2602C40.7759 10.1959 40.8472 10.13 40.917 10.0609C40.9869 9.9927 41.0551 9.9221 41.1202 9.84915C41.1861 9.77621 41.2488 9.70169 41.31 9.6256C41.3712 9.54873 41.43 9.47029 41.4857 9.39029C41.5422 9.31028 41.5963 9.2287 41.6473 9.14477C41.6991 9.06163 41.7477 8.97691 41.7932 8.89063C41.8395 8.80357 41.8834 8.7165 41.9242 8.62708C41.965 8.53844 42.0026 8.44824 42.0379 8.35646C42.0732 8.26548 42.1062 8.17292 42.136 8.07958C42.1658 7.98702 42.1925 7.89289 42.2168 7.79798C42.2403 7.70307 42.2615 7.60737 42.2795 7.51089C42.2983 7.41441 42.3133 7.31793 42.3258 7.22067C42.3376 7.12419 42.347 7.02614 42.354 6.92888C42.3603 6.83083 42.3635 6.73357 42.3642 6.63552C42.3642 6.53747 42.3619 6.43942 42.3564 6.34216C42.3509 6.24411 42.3431 6.14684 42.3313 6.04958C42.3203 5.95232 42.3054 5.85505 42.2882 5.75936C42.2709 5.66288 42.2513 5.56718 42.2278 5.47149C42.205 5.37658 42.1791 5.28245 42.1501 5.18832C42.1211 5.09498 42.0897 5.00242 42.0552 4.91065C42.0207 4.81888 41.9838 4.72867 41.9438 4.63925C41.9038 4.54983 41.8607 4.46198 41.8159 4.37491C41.7705 4.28785 41.7226 4.20313 41.6716 4.1192C41.6214 4.03527 41.5689 3.95291 41.5132 3.87212C41.4575 3.79133 41.3994 3.71289 41.3398 3.63524C41.2794 3.55837 41.2167 3.48306 41.1516 3.40933C41.0873 3.33638 41.0198 3.265 40.9508 3.19598C40.8817 3.12617 40.8104 3.05949 40.7374 2.99439C40.6637 2.92929 40.5884 2.86654 40.5115 2.80614C40.4346 2.74574 40.3562 2.6877 40.2754 2.632C40.1946 2.57631 40.1123 2.52376 40.0283 2.47277C39.9452 2.42257 39.8597 2.37394 39.7726 2.32845C39.6863 2.28374 39.5985 2.24059 39.5091 2.20059C39.4196 2.16059 39.3287 2.12294 39.2377 2.08842C39.1459 2.05391 39.0533 2.02175 38.96 1.99351C38.8659 1.96449 38.7717 1.93782 38.6768 1.91507C38.5819 1.89154 38.4862 1.87115 38.3897 1.85389C38.2933 1.83663 38.1968 1.82173 38.0995 1.80997C38.0023 1.79898 37.9042 1.79036 37.8069 1.78487C37.7089 1.77859 37.6116 1.77624 37.5136 1.77702C37.4155 1.77702 37.3175 1.78016 37.2202 1.78643C37.1222 1.79271 37.0249 1.80212 36.9276 1.81389C36.8304 1.82644 36.7339 1.84134 36.6374 1.85938C36.5417 1.87742 36.446 1.8986 36.3511 1.92213C36.2562 1.94645 36.1621 1.97312 36.0687 2.00214C35.9754 2.03195 35.8828 2.06411 35.7911 2.0994C35.7001 2.1347 35.6099 2.17235 35.5205 2.21314C35.4318 2.25393 35.344 2.29707 35.2577 2.34335C35.1714 2.38963 35.0859 2.43826 35.0028 2.48925C34.9188 2.54023 34.8373 2.59357 34.7572 2.65004C34.6772 2.70652 34.5988 2.76457 34.5219 2.82575C34.4451 2.88615 34.3705 2.94968 34.2976 3.01478C34.2246 3.08067 34.1541 3.14813 34.085 3.21794C34.0168 3.28775 33.9501 3.35913 33.8858 3.43286C33.8215 3.5066 33.7595 3.58268 33.6991 3.66034C33.6395 3.73721 33.5822 3.81721 33.5273 3.89801C33.4724 3.9788 33.4199 4.06116 33.3697 4.14587C33.3202 4.2298 33.2724 4.3153 33.2277 4.40237C33.183 4.48943 33.1414 4.57807 33.1022 4.66749C33.0622 4.75769 33.0261 4.8479 32.9924 4.94046C32.9579 5.03223 32.9273 5.12479 32.899 5.21813C32.8708 5.31226 32.8457 5.40717 32.8229 5.50208C32.8002 5.59699 32.7806 5.69347 32.7641 5.78995C32.7476 5.88643 32.7335 5.98291 32.7233 6.08017C32.7123 6.17744 32.7045 6.27548 32.6998 6.37275C32.6951 6.4708 32.6927 6.56884 32.6943 6.66689C32.6951 6.76416 32.699 6.86221 32.7061 6.96025C32.7131 7.05752 32.7233 7.15478 32.7367 7.25205C32.7492 7.34931 32.7649 7.44579 32.7837 7.54149C32.8026 7.63797 32.8245 7.73288 32.8496 7.82779C32.8739 7.9227 32.9014 8.01682 32.932 8.10938C32.9618 8.20272 32.9955 8.2945 33.0308 8.38627C33.0669 8.47726 33.1053 8.56668 33.1469 8.65532C33.1885 8.74474 33.2324 8.8318 33.2795 8.91809C33.3257 9.00358 33.3752 9.0883 33.4269 9.17144C33.4787 9.25459 33.5328 9.33616 33.5901 9.41539C33.6466 9.49539 33.7062 9.57305 33.7673 9.64992L28.7881 16.005C28.4116 15.7783 28.0194 15.5815 27.613 15.4136C27.2067 15.2457 26.7902 15.1093 26.3627 15.0049C25.936 14.8998 25.5038 14.8269 25.0654 14.7877C24.6277 14.7477 24.1892 14.7406 23.7507 14.7665C23.3115 14.7924 22.8769 14.8512 22.4471 14.943C22.0172 15.034 21.596 15.1571 21.1842 15.3124C20.7732 15.4669 20.3755 15.6513 19.9911 15.8662C19.6076 16.0803 19.2421 16.3227 18.8946 16.5925L10.8021 8.44745C10.8538 8.36431 10.904 8.27959 10.9511 8.1941C10.9981 8.10781 11.0429 8.01996 11.0844 7.93133C11.1268 7.84269 11.1652 7.75249 11.2021 7.6615C11.2382 7.56972 11.2719 7.47795 11.3025 7.38461C11.3339 7.29127 11.3613 7.19714 11.3864 7.10223C11.4115 7.00732 11.4335 6.91162 11.4531 6.81514C11.4719 6.71945 11.4884 6.62218 11.5017 6.52492C11.5151 6.42766 11.526 6.33039 11.5331 6.23234C11.5409 6.13429 11.5449 6.03625 11.5464 5.9382C11.548 5.84015 11.5464 5.7421 11.5425 5.64405C11.5378 5.546 11.53 5.44796 11.5198 5.34991C11.5096 5.25264 11.4962 5.15538 11.4798 5.05811C11.4633 4.96163 11.4445 4.86516 11.4217 4.76946C11.3998 4.67376 11.3747 4.57885 11.3472 4.48473C11.319 4.3906 11.2884 4.29804 11.2546 4.20549C11.2209 4.11293 11.1848 4.02194 11.1456 3.93173C11.1064 3.84153 11.0648 3.75289 11.0201 3.66583C10.9754 3.57798 10.9283 3.49169 10.8781 3.40698C10.8287 3.32226 10.7762 3.2399 10.7213 3.15833C10.6671 3.07675 10.6099 2.99674 10.5503 2.91909C10.4906 2.84065 10.4287 2.76457 10.3644 2.69083C10.3 2.61632 10.2334 2.54415 10.1643 2.47356C10.0961 2.40375 10.0255 2.33551 9.95256 2.26962C9.87961 2.20373 9.80509 2.14019 9.72822 2.07901C9.65135 2.01783 9.57292 1.95821 9.49291 1.90174C9.4129 1.84526 9.33054 1.79114 9.24739 1.73937C9.16347 1.6876 9.07875 1.63897 8.99247 1.59269C8.9054 1.54563 8.81755 1.50249 8.72891 1.46091C8.63949 1.42012 8.54929 1.38169 8.45752 1.34561C8.36574 1.31031 8.27318 1.27737 8.17984 1.24756C8.0865 1.21775 7.99237 1.1903 7.89668 1.16598C7.80177 1.14167 7.70607 1.12049 7.60959 1.10166C7.51311 1.08362 7.41663 1.06793 7.31859 1.05538C7.22132 1.04283 7.12406 1.03342 7.02601 1.02636C6.92796 1.02009 6.82991 1.01617 6.73186 1.01538C6.63381 1.01538 6.53498 1.01773 6.43693 1.02244C6.33888 1.02793 6.24162 1.03656 6.14357 1.04754C6.04631 1.05852 5.94904 1.07264 5.85256 1.0899C5.75608 1.10715 5.65961 1.12755 5.56391 1.1503C5.469 1.17304 5.37409 1.19893 5.27996 1.22795C5.18662 1.25619 5.09328 1.28835 5.0015 1.32208C4.90973 1.35659 4.81874 1.39424 4.72854 1.43346C4.63912 1.47346 4.55048 1.51582 4.46341 1.56131C4.37635 1.60681 4.29085 1.65466 4.20613 1.70486C4.12221 1.75584 4.03984 1.8084 3.95827 1.86409C3.87748 1.91978 3.79825 1.97704 3.7206 2.03744C3.64294 2.09784 3.56764 2.16059 3.49391 2.22569C3.42018 2.29001 3.3488 2.35747 3.27899 2.42649C3.20918 2.4963 3.14172 2.5669 3.07662 2.64063C3.01151 2.71436 2.94798 2.78888 2.88758 2.86654C2.82718 2.94341 2.76835 3.02263 2.71266 3.10342C2.65697 3.18421 2.60363 3.26657 2.55265 3.3505C2.50166 3.43443 2.45303 3.51993 2.40753 3.60621C2.36204 3.69328 2.3189 3.78192 2.27811 3.87134C2.23811 3.96076 2.20046 4.05175 2.16516 4.14352C2.13065 4.23529 2.09849 4.32785 2.06946 4.42119C2.04044 4.51532 2.01377 4.60944 1.99024 4.70514C1.96671 4.80084 1.94631 4.89653 1.92827 4.99301C1.91102 5.08949 1.89611 5.18675 1.88435 5.28402C1.87258 5.38207 1.86395 5.47933 1.85846 5.57738C1.85219 5.67543 1.84983 5.77348 1.84983 5.87152C1.84983 5.97036 1.85297 6.06841 1.85925 6.16645C1.86552 6.2645 1.87415 6.36177 1.8867 6.45903C1.89847 6.55708 1.91337 6.65356 1.93141 6.75004C1.94945 6.84652 1.96985 6.943 1.99416 7.03791C2.01769 7.1336 2.04436 7.22773 2.07417 7.32186C2.10319 7.4152 2.13535 7.50776 2.17065 7.59953C2.20595 7.6913 2.2436 7.78151 2.28439 7.87093C2.32517 7.96035 2.36831 8.04898 2.41459 8.13527C2.46009 8.22233 2.50872 8.30705 2.56049 8.39098C2.61148 8.47491 2.66481 8.55727 2.72129 8.63806C2.77698 8.71807 2.83581 8.79729 2.89699 8.87416C2.95817 8.95103 3.02093 9.02633 3.08681 9.09928C3.15192 9.17223 3.21938 9.24361 3.28919 9.31263C3.35978 9.38166 3.43116 9.44833 3.50489 9.51344C3.57941 9.57776 3.65471 9.64051 3.73236 9.70012C3.81002 9.76052 3.88924 9.81778 3.97082 9.87347C4.0524 9.92838 4.13476 9.98093 4.21947 10.0311C4.3034 10.0813 4.38968 10.1292 4.47675 10.1739C4.56382 10.2194 4.65245 10.2617 4.74266 10.301C4.83208 10.341 4.92307 10.3778 5.01562 10.4116C5.1074 10.4461 5.20074 10.4767 5.29408 10.5057C5.38821 10.5339 5.48312 10.559 5.57881 10.5818C5.67451 10.6045 5.7702 10.6241 5.86747 10.6414C5.96395 10.6579 6.06121 10.672 6.15848 10.683C6.25652 10.6939 6.35379 10.7018 6.45184 10.7065C6.54989 10.712 6.64872 10.7135 6.74677 10.7128C6.84482 10.712 6.94286 10.7081 7.04091 10.701C7.13896 10.6939 7.23622 10.6845 7.33349 10.6712C7.43075 10.6586 7.52802 10.643 7.6245 10.6241C7.72098 10.6053 7.81667 10.5833 7.91158 10.559C8.00649 10.5347 8.10062 10.5073 8.19396 10.4767C8.2873 10.4461 8.37986 10.4131 8.47163 10.377C8.56262 10.3417 8.65283 10.3025 8.74225 10.2617C8.83088 10.2202 8.91874 10.1762 9.00502 10.1292C9.0913 10.0829 9.1768 10.0335 9.25994 9.98172L17.3533 18.1237C17.1454 18.388 16.954 18.6633 16.7783 18.9496C16.6018 19.2367 16.4434 19.5324 16.3014 19.8368C16.1594 20.1419 16.0355 20.4533 15.9296 20.7725C15.8237 21.0918 15.7358 21.4157 15.6668 21.7444C15.5986 22.0738 15.5484 22.4056 15.5178 22.7398C15.4872 23.0747 15.4754 23.4104 15.4833 23.7461C15.4911 24.0827 15.5178 24.4168 15.5641 24.7502C15.6103 25.0827 15.6754 25.4122 15.7594 25.7377L8.84657 28.4846C8.73754 28.3278 8.61988 28.1787 8.4936 28.0367C8.36731 27.894 8.23318 27.7599 8.09042 27.6336C7.94845 27.5065 7.79863 27.3896 7.64254 27.2806C7.48644 27.1716 7.32408 27.0727 7.15622 26.9833C6.98836 26.8939 6.81501 26.8139 6.63774 26.7449C6.46047 26.6758 6.27927 26.6178 6.09494 26.5699C5.91061 26.5221 5.72471 26.4852 5.53567 26.4601C5.34742 26.4342 5.1576 26.4201 4.96699 26.417C4.77717 26.4139 4.58735 26.4217 4.39753 26.4413C4.20849 26.4601 4.02024 26.4907 3.83434 26.5323C3.64922 26.5739 3.46646 26.6264 3.28683 26.6892C3.10721 26.7527 2.93151 26.8264 2.76051 26.9104C2.5903 26.9935 2.42479 27.0876 2.26478 27.1912C2.10476 27.2947 1.95181 27.4069 1.80512 27.5285C1.65844 27.65 1.52039 27.7803 1.38861 27.9183C1.25762 28.0564 1.13526 28.2015 1.02152 28.3544C0.907785 28.5066 0.802677 28.6658 0.707767 28.8305C0.612855 28.9953 0.527357 29.1655 0.452841 29.3404C0.377539 29.5153 0.31322 29.6942 0.259097 29.8769C0.205758 30.0597 0.162617 30.2448 0.131242 30.4323C0.0990818 30.6197 0.0786877 30.8088 0.0684907 30.9994C0.059078 31.1892 0.0606466 31.379 0.0739814 31.5696C0.0873159 31.7595 0.110847 31.9477 0.146145 32.1352C0.181442 32.3219 0.227721 32.5062 0.284982 32.6882C0.342242 32.8694 0.409699 33.0474 0.488138 33.2208C0.565792 33.3941 0.654428 33.5628 0.752477 33.7259C0.850525 33.8891 0.957986 34.0459 1.07486 34.1965C1.19095 34.3471 1.31645 34.4899 1.4498 34.6256C1.58314 34.7613 1.72433 34.8884 1.87337 35.0076C2.02162 35.1268 2.17692 35.2359 2.33851 35.337C2.50009 35.4374 2.66717 35.5276 2.83973 35.6084C3.0123 35.6892 3.18878 35.7598 3.36998 35.8194C3.55039 35.8798 3.73393 35.9285 3.92062 35.9669C4.1073 36.0053 4.29556 36.032 4.48459 36.0477C4.67441 36.0634 4.86502 36.0681 5.05484 36.0618C5.24545 36.0548 5.43449 36.0375 5.62274 36.0085C5.81099 35.9795 5.99689 35.9395 6.17965 35.8885C6.3632 35.8375 6.54283 35.7755 6.71931 35.7034C6.8958 35.6312 7.0668 35.548 7.23309 35.4555C7.39938 35.3629 7.55939 35.261 7.71392 35.1496C7.86844 35.0382 8.01512 34.9174 8.15553 34.7888C8.29593 34.6601 8.42771 34.5229 8.55164 34.3785C8.67479 34.2334 8.7901 34.082 8.89599 33.9244C9.00188 33.7659 9.09836 33.602 9.18464 33.4326C9.27093 33.2623 9.34701 33.089 9.4129 32.9101C9.47879 32.7313 9.53448 32.5493 9.57841 32.3642C9.62312 32.1791 9.65606 31.9916 9.67802 31.8026C9.70077 31.6136 9.71175 31.4237 9.71097 31.2339C9.70861 30.99 9.68744 30.7484 9.649 30.5076L16.5642 27.7606C16.6402 27.9003 16.7195 28.0367 16.8034 28.1717C16.8865 28.3058 16.9736 28.4384 17.0638 28.5686C17.1548 28.698 17.2481 28.8258 17.3462 28.9506C17.4435 29.0753 17.5439 29.1976 17.6482 29.3169C17.7525 29.4361 17.8592 29.553 17.9698 29.6667C18.0804 29.7797 18.1933 29.8903 18.3094 29.9977C18.4263 30.1052 18.5447 30.2095 18.6671 30.3107C18.7887 30.4119 18.9134 30.5091 19.0405 30.604C19.1683 30.6982 19.2978 30.7892 19.4303 30.8762C19.5621 30.9633 19.6962 31.0472 19.8335 31.1272C19.97 31.2072 20.1088 31.2833 20.2492 31.3555C20.3904 31.4284 20.5332 31.4967 20.6775 31.5618C20.8218 31.6261 20.9685 31.6873 21.116 31.7438C21.2634 31.801 21.4132 31.8536 21.5638 31.9022C21.7144 31.9508 21.8666 31.9956 22.0196 32.0363C22.1725 32.0771 22.3263 32.1132 22.4816 32.1454C22.6369 32.1775 22.7922 32.2058 22.9491 32.2293C23.106 32.2528 23.2628 32.2724 23.4205 32.2881C23.5782 32.303 23.7358 32.314 23.8943 32.3211C24.0527 32.3281 24.2104 32.3305 24.3688 32.3281C24.5273 32.3266 24.6857 32.3203 24.8434 32.3101C25.0018 32.2999 25.1595 32.285 25.3164 32.2662C25.474 32.2473 25.6301 32.2238 25.7862 32.1964C25.9423 32.1689 26.0976 32.1375 26.2513 32.1014C26.4059 32.0661 26.5588 32.0261 26.711 31.9814C26.8632 31.9375 27.0138 31.8897 27.1636 31.8371C27.3134 31.7853 27.4609 31.7289 27.6076 31.6685C27.7542 31.6081 27.8986 31.5437 28.0413 31.4763C28.1849 31.408 28.3261 31.3359 28.4649 31.2598C28.6037 31.1845 28.741 31.1053 28.8759 31.0221C29.01 30.939 29.1426 30.8519 29.2728 30.7617C29.403 30.6715 29.5309 30.5774 29.6556 30.4801L40.9061 41.7494C40.7915 41.9314 40.6904 42.1204 40.6009 42.3157C40.5123 42.5111 40.437 42.7111 40.3742 42.9166C40.3123 43.1221 40.2644 43.3307 40.2299 43.5425C40.1954 43.7543 40.1758 43.9677 40.1695 44.1826C40.164 44.3967 40.1719 44.6109 40.1946 44.8242C40.2174 45.0376 40.2542 45.2486 40.3052 45.4572C40.3562 45.6659 40.4205 45.8706 40.499 46.0698C40.5766 46.2698 40.6676 46.4636 40.7719 46.6518C40.8763 46.8393 40.9923 47.0197 41.1202 47.1915C41.2481 47.3641 41.3869 47.5272 41.5367 47.681C41.6865 47.8347 41.8458 47.9775 42.0152 48.11C42.1838 48.2426 42.3611 48.3634 42.5454 48.4724C42.7305 48.5806 42.9219 48.6771 43.1204 48.7603C43.3181 48.8434 43.5204 48.9132 43.7275 48.9697C43.9346 49.0262 44.1448 49.0685 44.3574 49.0968C44.5699 49.125 44.7841 49.1383 44.9982 49.1383V49.136ZM4.87914 33.9071C4.70501 33.9071 4.53244 33.8899 4.36144 33.8561C4.19045 33.8216 4.02416 33.7714 3.86336 33.7055C3.70256 33.6388 3.5496 33.5573 3.40449 33.46C3.25938 33.3635 3.12525 33.2537 3.0021 33.1306C2.87895 33.0074 2.76835 32.8733 2.67187 32.729C2.57461 32.5838 2.49303 32.4317 2.42558 32.2701C2.3589 32.1093 2.30792 31.9438 2.27419 31.7728C2.23968 31.6018 2.22242 31.43 2.22242 31.2551C2.22163 31.081 2.23811 30.9084 2.27184 30.7374C2.30556 30.5664 2.35576 30.4009 2.42165 30.2393C2.48833 30.0785 2.56912 29.9256 2.6656 29.7804C2.76208 29.6353 2.87189 29.5004 2.99426 29.3773C3.11741 29.2533 3.25075 29.1427 3.39586 29.0455C3.54019 28.9482 3.69236 28.8666 3.85316 28.7992C4.01396 28.7317 4.17947 28.6807 4.35046 28.6462C4.52146 28.6117 4.69402 28.5937 4.86816 28.5929C5.04229 28.5921 5.21486 28.6086 5.38585 28.6423C5.55685 28.6752 5.72314 28.7247 5.88472 28.7905C6.04552 28.8564 6.19926 28.938 6.34438 29.0337C6.48949 29.1302 6.6244 29.2392 6.74834 29.3616C6.87148 29.4839 6.98287 29.6181 7.08013 29.7624C7.1774 29.9067 7.26054 30.0589 7.328 30.2197C7.39546 30.3797 7.44644 30.546 7.48174 30.7162C7.51625 30.8872 7.53429 31.0598 7.53586 31.2339C7.53586 31.408 7.51939 31.5814 7.48566 31.7532C7.45193 31.9242 7.40173 32.0912 7.33506 32.2528C7.26838 32.4144 7.18681 32.5674 7.09033 32.7133C6.99306 32.8584 6.88325 32.9933 6.75932 33.1172C6.63617 33.2404 6.50204 33.351 6.35693 33.4482C6.21181 33.5455 6.05807 33.6279 5.89727 33.6953C5.73569 33.762 5.5694 33.813 5.39762 33.8467C5.22662 33.8812 5.05327 33.8985 4.87914 33.8985V33.9071ZM47.6557 44.3112C47.6557 44.4861 47.6385 44.6587 47.6047 44.8297C47.571 45.0007 47.5208 45.167 47.4541 45.3286C47.3875 45.4902 47.3059 45.6431 47.2086 45.7882C47.1121 45.9333 47.0023 46.0675 46.8792 46.1914C46.7552 46.3145 46.6211 46.4251 46.4768 46.5224C46.3317 46.6189 46.1787 46.7013 46.0171 46.7679C45.8563 46.8346 45.69 46.8856 45.519 46.9193C45.348 46.9538 45.1747 46.9711 45.0006 46.9711C44.8256 46.9711 44.6531 46.9538 44.4821 46.9201C44.3111 46.8864 44.1448 46.8362 43.9832 46.7695C43.8224 46.7028 43.6687 46.6212 43.5236 46.524C43.3784 46.4275 43.2443 46.3169 43.1212 46.1938C42.9972 46.0706 42.8874 45.9365 42.7902 45.7914C42.6929 45.6463 42.6113 45.4933 42.5446 45.3317C42.4772 45.1709 42.427 45.0046 42.3933 44.8336C42.3587 44.6626 42.3415 44.4893 42.3415 44.3151C42.3415 44.1402 42.3587 43.9677 42.3925 43.7967C42.4262 43.6257 42.4772 43.4594 42.5439 43.2978C42.6105 43.137 42.6921 42.9833 42.7894 42.8381C42.8859 42.693 42.9965 42.5589 43.1196 42.4358C43.2428 42.3126 43.3769 42.202 43.522 42.1055C43.6671 42.0083 43.8201 41.9267 43.9816 41.8592C44.1424 41.7926 44.3087 41.7424 44.4797 41.7086C44.6515 41.6741 44.8241 41.6569 44.9982 41.6569C45.1723 41.6576 45.3449 41.6741 45.5151 41.7086C45.6861 41.7424 45.8516 41.7926 46.0124 41.8592C46.1732 41.9259 46.3262 42.0075 46.4705 42.1032C46.6156 42.1996 46.7497 42.3095 46.8729 42.4326C46.996 42.555 47.1059 42.6883 47.2031 42.8327C47.3004 42.9778 47.382 43.1299 47.4494 43.29C47.5169 43.4507 47.5671 43.6163 47.6024 43.7865C47.6369 43.9575 47.6549 44.1292 47.6557 44.3034V44.3112ZM37.512 3.95762C37.6861 3.95762 37.8595 3.97488 38.0305 4.0086C38.2015 4.04312 38.3678 4.09332 38.5286 4.15999C38.6902 4.22666 38.8431 4.30902 38.9882 4.4055C39.1333 4.50277 39.2675 4.61258 39.3906 4.73573C39.5138 4.85966 39.6244 4.99379 39.7209 5.13891C39.8181 5.28402 39.8997 5.43697 39.9664 5.59777C40.033 5.75936 40.084 5.92565 40.1178 6.09664C40.1515 6.26764 40.1687 6.44021 40.1687 6.61434C40.1687 6.78926 40.1515 6.96182 40.1178 7.13282C40.084 7.30382 40.033 7.47011 39.9664 7.63169C39.8997 7.79249 39.8181 7.94545 39.7209 8.09056C39.6244 8.23567 39.5138 8.3698 39.3906 8.49373C39.2675 8.61688 39.1333 8.7267 38.9882 8.82396C38.8431 8.92044 38.6902 9.0028 38.5286 9.06947C38.3678 9.13615 38.2015 9.18635 38.0305 9.22086C37.8595 9.25459 37.6861 9.27184 37.512 9.27184C37.3379 9.27184 37.1645 9.25459 36.9935 9.22086C36.8225 9.18635 36.6562 9.13615 36.4954 9.06947C36.3339 9.0028 36.1809 8.92044 36.0358 8.82396C35.8907 8.7267 35.7566 8.61688 35.6334 8.49373C35.5103 8.3698 35.3997 8.23567 35.3032 8.09056C35.2059 7.94545 35.1243 7.79249 35.0577 7.63169C34.9902 7.47011 34.94 7.30382 34.9063 7.13282C34.8718 6.96182 34.8553 6.78926 34.8553 6.61434C34.8553 6.44021 34.8726 6.26764 34.9071 6.09664C34.9416 5.92565 34.9918 5.76014 35.0585 5.59856C35.1259 5.43776 35.2075 5.2848 35.3047 5.13969C35.4012 4.99536 35.5118 4.86123 35.635 4.7373C35.7581 4.61415 35.8923 4.50434 36.0374 4.40707C36.1825 4.31059 36.3354 4.22823 36.4962 4.16156C36.657 4.09489 36.8233 4.0439 36.9943 4.00939C37.1653 3.97566 37.3379 3.9584 37.512 3.95762ZM4.06338 5.88015C4.06338 5.70602 4.07985 5.53345 4.11436 5.36246C4.14809 5.19068 4.19829 5.02517 4.26496 4.86359C4.33242 4.70279 4.414 4.54905 4.51048 4.40472C4.60774 4.25961 4.71756 4.12548 4.84149 4.00154C4.96464 3.8784 5.09877 3.76858 5.24388 3.67132C5.38899 3.57405 5.54195 3.49248 5.70353 3.4258C5.86433 3.35913 6.03062 3.30893 6.20162 3.27442C6.37261 3.24069 6.54518 3.22343 6.7201 3.22343C6.89423 3.22343 7.0668 3.24069 7.23858 3.27442C7.40957 3.30893 7.57586 3.35913 7.73666 3.4258C7.89746 3.49248 8.0512 3.57405 8.19631 3.67132C8.34143 3.76858 8.47556 3.8784 8.59871 4.00154C8.72185 4.12548 8.83245 4.25961 8.92893 4.40472C9.0262 4.54905 9.10777 4.70279 9.17445 4.86359C9.24112 5.02517 9.29132 5.19068 9.32583 5.36246C9.35956 5.53345 9.37682 5.70602 9.37682 5.88015C9.37682 6.05507 9.35956 6.22764 9.32583 6.39863C9.29132 6.56963 9.24112 6.73592 9.17445 6.8975C9.10777 7.0583 9.0262 7.21126 8.92893 7.35637C8.83245 7.50148 8.72185 7.63561 8.59871 7.75955C8.47556 7.88269 8.34143 7.99251 8.19631 8.08977C8.0512 8.18625 7.89746 8.26861 7.73666 8.33529C7.57586 8.40196 7.40957 8.45216 7.23858 8.48667C7.0668 8.5204 6.89423 8.53766 6.7201 8.53766C6.54518 8.53766 6.37261 8.5204 6.20162 8.48667C6.02984 8.45216 5.86433 8.40196 5.70275 8.33529C5.54116 8.26861 5.38821 8.18625 5.2431 8.08977C5.09798 7.99251 4.96385 7.88269 4.83992 7.75955C4.71677 7.63561 4.60617 7.50148 4.50969 7.35637C4.41243 7.21204 4.33007 7.0583 4.2634 6.8975C4.19672 6.73592 4.14574 6.57041 4.11201 6.39863C4.0775 6.22764 4.06024 6.05507 4.06024 5.88015H4.06338ZM17.66 23.5375C17.66 23.321 17.6701 23.1045 17.6913 22.8888C17.7125 22.6739 17.7439 22.4598 17.7862 22.2472C17.8286 22.0346 17.8811 21.8244 17.9439 21.6173C18.0066 21.4095 18.0788 21.2055 18.162 21.0055C18.2443 20.8055 18.3369 20.6094 18.4388 20.4188C18.5408 20.2274 18.6522 20.0415 18.7722 19.8611C18.893 19.6815 19.0216 19.5073 19.1589 19.3395C19.2962 19.1724 19.4413 19.0116 19.595 18.8586C19.748 18.7049 19.908 18.5598 20.0759 18.4217C20.2429 18.2845 20.4171 18.1558 20.5967 18.035C20.7771 17.9142 20.9622 17.8028 21.1536 17.7009C21.345 17.5989 21.5403 17.5063 21.7403 17.4232C21.9404 17.3401 22.1443 17.2671 22.3514 17.2044C22.5592 17.1408 22.7687 17.0883 22.9812 17.0459C23.1938 17.0036 23.4079 16.9722 23.6236 16.951C23.8394 16.929 24.0551 16.9188 24.2723 16.9188C24.4888 16.9188 24.7045 16.929 24.9202 16.9502C25.1359 16.9714 25.3501 17.0036 25.5627 17.0451C25.7752 17.0875 25.9854 17.14 26.1925 17.2028C26.3996 17.2655 26.6035 17.3385 26.8036 17.4216C27.0044 17.5048 27.1997 17.5973 27.3911 17.6993C27.5817 17.8013 27.7676 17.9127 27.948 18.0327C28.1276 18.1535 28.3017 18.2821 28.4696 18.4194C28.6367 18.5574 28.7975 18.7025 28.9504 18.8555C29.1034 19.0092 29.2493 19.1692 29.3865 19.3371C29.5238 19.5042 29.6525 19.6783 29.7732 19.8579C29.8933 20.0383 30.0046 20.2242 30.1066 20.4149C30.2086 20.6062 30.3011 20.8023 30.3843 21.0024C30.4674 21.2024 30.5404 21.4063 30.6031 21.6134C30.6659 21.8205 30.7184 22.0307 30.7608 22.2433C30.8031 22.4558 30.8345 22.67 30.8557 22.8857C30.8769 23.1014 30.8879 23.3171 30.8871 23.5344C30.8871 23.7509 30.8769 23.9666 30.8557 24.1823C30.8337 24.398 30.8024 24.6121 30.76 24.8247C30.7177 25.0373 30.6651 25.2475 30.6016 25.4545C30.5388 25.6616 30.4659 25.8656 30.3827 26.0656C30.3004 26.2656 30.207 26.4617 30.105 26.6523C30.0031 26.8437 29.8917 27.0288 29.7709 27.2092C29.6509 27.3896 29.5215 27.563 29.3842 27.7308C29.2461 27.8979 29.101 28.0579 28.9481 28.2117C28.7943 28.3646 28.6343 28.5097 28.4665 28.647C28.2986 28.7843 28.1252 28.9129 27.9448 29.0337C27.7644 29.1537 27.5785 29.2651 27.3879 29.3671C27.1965 29.469 27.0004 29.5616 26.8004 29.644C26.6004 29.7271 26.3965 29.8001 26.1894 29.8628C25.9815 29.9256 25.7721 29.9773 25.5595 30.0197C25.3469 30.062 25.1328 30.0934 24.9171 30.1146C24.7014 30.1358 24.4849 30.146 24.2684 30.146C24.0519 30.146 23.8362 30.135 23.6205 30.113C23.4056 30.0918 23.1915 30.0597 22.9797 30.0173C22.7671 29.975 22.5577 29.9224 22.3506 29.8597C22.1435 29.7969 21.9396 29.724 21.7403 29.6408C21.5403 29.5577 21.345 29.4651 21.1536 29.3631C20.963 29.2612 20.7779 29.1498 20.5975 29.0298C20.4179 28.9098 20.2437 28.7811 20.0766 28.6439C19.9096 28.5066 19.7496 28.3615 19.5958 28.2085C19.4429 28.0556 19.2978 27.8956 19.1605 27.7277C19.0232 27.5606 18.8938 27.3873 18.7738 27.2077C18.653 27.028 18.5424 26.8421 18.4396 26.6515C18.3377 26.4609 18.2451 26.2656 18.162 26.0656C18.0788 25.8656 18.0059 25.6624 17.9423 25.4553C17.8796 25.2483 17.827 25.0388 17.7839 24.8263C17.7415 24.6145 17.7094 24.4003 17.6882 24.1854C17.6662 23.9697 17.6552 23.754 17.6545 23.5375H17.66Z" fill="#289CB0"/>
</svg>
