<svg width="50" height="50" viewBox="0 0 50 50" fill="none" xmlns="http://www.w3.org/2000/svg">
<path fill-rule="evenodd" clip-rule="evenodd" d="M28.8967 16.4983L28.282 15.4329C23.4267 13.5976 21.204 9.18778 21.731 2.35184C21.7892 1.81917 22.4326 1.55283 22.8424 1.90795C27.142 5.60678 29.9204 8.53727 29.4229 14.7518L29.5688 14.989L31.0318 12.4137C30.1835 7.23465 32.8447 3.09112 38.9581 0.131571C39.4261 -0.104903 39.9818 0.33899 39.8933 0.87166C38.8696 6.49456 37.7582 10.4016 32.2014 13.065L30.213 16.4983V17.3861L31.2949 16.7347C32.9619 12.2958 36.6469 10.0465 42.2627 10.0465C42.8766 10.0465 43.5495 10.0764 44.2224 10.1353C44.7781 10.1651 45.0412 10.8156 44.6904 11.2305C41.2391 15.2844 38.6065 17.9486 33.3717 17.9486C32.9324 17.9486 32.4645 17.9187 31.9965 17.8889L30.213 18.9252V26.5609C32.8742 26.7974 35.2724 28.3066 36.6182 30.6447C38.8114 29.2832 41.9407 27.7441 43.7839 30.0531C46.2698 28.9878 48.8146 28.899 49.8965 31.681C50.0137 31.9473 49.926 32.3024 49.6621 32.48C47.4106 34.0482 45.4215 35.5283 43.6667 36.86C35.0675 43.3408 30.7097 46.6264 16.3495 42.7791L12.9269 44.7911C13.2785 45.3835 13.8341 46.1228 13.7169 46.5377C13.6587 46.7152 13.5702 46.8629 13.3949 46.9517L8.54035 49.8523C8.21826 50.0299 7.80847 49.9112 7.63307 49.586L0.174729 36.6824C-0.000667721 36.3564 0.0870306 35.9424 0.409123 35.7648L5.26442 32.894C6.025 32.4501 6.4045 33.5453 6.87249 34.3145C11.845 30.911 16.3495 26.59 23.0177 29.8457C24.4217 27.9515 26.5568 26.7675 28.8967 26.5609V23.0687L26.206 20.3456C21.0286 19.8428 17.7822 16.173 16.5249 9.42506C16.4372 8.89239 16.9929 8.47755 17.4609 8.71483C22.5793 11.1708 26.0011 13.2425 27.1125 19.369L28.8967 21.1745V16.4983ZM35.4773 31.3549C33.1078 27.1525 27.2584 26.6497 24.2463 30.4373C27.4633 30.3784 32.1432 29.9345 34.8921 31.7101C35.0675 31.6213 35.2724 31.4736 35.4773 31.3549ZM12.2548 43.637L15.9102 41.4765C16.0856 41.3877 16.2618 41.3587 16.4372 41.4176C30.3884 45.1761 34.3077 42.2464 42.8766 35.7648C44.515 34.551 46.3575 33.1604 48.4343 31.681C48.1712 31.2363 47.8196 30.9409 47.3516 30.7924C45.1002 30.1419 40.917 33.1305 38.4311 34.9359C37.7 35.4396 36.5887 36.3564 36.1502 36.3564L26.4101 36.3863C25.5626 36.3863 25.5331 35.0546 26.4101 35.0546L35.5068 34.9957C35.0388 30.1419 24.5094 32.2427 23.6316 31.7101C16.9052 27.6852 12.9564 31.7698 7.54537 35.4985L12.2548 43.637ZM6.0832 35.6462L5.38082 34.3734L1.6664 36.5937L8.45186 48.3431L12.1671 46.1527L6.0832 35.6462ZM35.9453 32.6576C36.3551 33.1604 36.6469 33.7818 36.7641 34.4622C38.5778 33.1902 40.4498 31.7698 42.5258 30.6447C40.976 29.2541 37.7295 31.5026 35.9453 32.6576ZM38.3139 1.96686C33.8397 4.45266 31.8506 7.58976 32.2604 11.5259C36.4133 9.30642 37.4664 6.34687 38.3139 1.96686ZM32.7865 16.5871C37.4075 16.7646 39.8056 14.8115 42.7889 11.3782C37.8172 11.2595 34.4536 12.8584 32.7865 16.5871ZM18.1043 10.5203C19.3328 15.5217 21.8187 18.3037 25.679 18.9252C24.6266 14.3079 22.0818 12.5024 18.1043 10.5203ZM22.9883 3.83121C22.8711 8.98116 24.5676 12.2958 28.1361 13.9237C28.3115 9.18778 26.3224 6.7617 22.9883 3.83121Z" fill="#289CB0"/>
</svg>
