<svg width="52" height="52" viewBox="0 0 52 52" fill="none" xmlns="http://www.w3.org/2000/svg">
<g id="Icon">
<g id="Vector">
<mask id="path-1-outside-1_43_427" maskUnits="userSpaceOnUse" x="0.0703125" y="-0.00390625" width="52" height="53" fill="black">
<rect fill="white" x="0.0703125" y="-0.00390625" width="52" height="53"/>
<path d="M47.8688 7.80155L48.4499 7.39532C47.3482 5.33357 45.795 3.73115 44.0079 2.64758C42.2215 1.56402 40.2005 0.996094 38.1471 0.996094C37.4779 0.996094 36.8045 1.05643 36.1346 1.18031C33.7868 1.61229 31.6285 2.82054 29.8498 4.58545C29.8048 4.62889 29.7569 4.67957 29.6977 4.74473C29.4772 4.98203 29.113 5.39792 28.6812 5.91115C28.0325 6.68098 27.2393 7.66158 26.5948 8.55047C26.2728 8.99613 25.9875 9.41684 25.7699 9.79492C25.6614 9.98557 25.5684 10.1642 25.493 10.346C25.4557 10.4377 25.4226 10.5302 25.3965 10.6339C25.3698 10.7369 25.3479 10.8511 25.3472 10.9975C25.3472 11.0748 25.3536 11.1624 25.3761 11.259C25.3987 11.3539 25.4374 11.4577 25.4966 11.5534L26.0538 11.1061L26.6039 10.6476C26.6018 10.6428 26.5898 10.6235 26.5701 10.5937C26.4398 10.3902 26.2313 10.2728 26.0108 10.2768C25.7896 10.2808 25.5846 10.4055 25.4599 10.6138C25.4578 10.6179 25.4473 10.6339 25.4282 10.6645C25.2162 11.0168 25.2937 11.5003 25.6001 11.7441C25.9072 11.9886 26.3313 11.9025 26.5469 11.5534C26.606 11.4577 26.6448 11.3539 26.6673 11.259C26.6898 11.1624 26.6962 11.0748 26.6962 10.9975C26.6941 10.7908 26.6539 10.6452 26.6095 10.5076C26.5673 10.3797 26.5166 10.2607 26.4574 10.14C26.3475 9.91398 26.2101 9.67909 26.0495 9.4273C25.7685 8.98728 25.417 8.49738 25.038 7.99783C24.4702 7.24811 23.8412 6.47827 23.3157 5.85564C23.053 5.54433 22.8163 5.27082 22.6247 5.05443C22.5289 4.94583 22.445 4.85252 22.3739 4.77529C22.3021 4.69646 22.245 4.63613 22.1943 4.58545C20.4142 2.82054 18.2566 1.61229 15.9088 1.18031C15.2389 1.05643 14.5655 0.996094 13.8963 0.996094C11.8429 0.996094 9.82266 1.56402 8.03556 2.64758C6.24846 3.73115 4.69523 5.33357 3.59352 7.39532C2.98773 8.52956 2.36643 9.98316 1.88814 11.5059C1.64864 12.2661 1.44577 13.044 1.30136 13.8098C1.15766 14.5756 1.07031 15.3278 1.07031 16.0445C1.06961 18.6356 1.5634 21.0376 2.38827 23.2602C3.62522 26.5962 5.59758 29.5316 7.78126 32.2031C9.96706 34.8738 12.3698 37.2854 14.4901 39.5491C14.5443 39.607 14.6218 39.6858 14.7282 39.7936C15.1241 40.1942 15.9095 40.9729 16.8907 41.9463C18.3616 43.4055 20.2705 45.3007 21.9393 46.9884C22.774 47.8331 23.5489 48.6254 24.1772 49.2835C24.4914 49.6125 24.7689 49.9085 24.9985 50.1587C25.2268 50.4081 25.4078 50.6148 25.5226 50.7556C25.6515 50.914 25.8319 51.0033 26.0214 51.0033C26.2115 51.0033 26.3912 50.914 26.5201 50.7556C26.6835 50.5545 26.9794 50.2247 27.3597 49.8176C28.0275 49.1049 28.9609 48.1452 29.9921 47.1019C31.5397 45.5348 33.3092 43.7756 34.7498 42.3453C35.4704 41.6301 36.1086 40.9979 36.596 40.5128C36.8405 40.2699 37.0468 40.0631 37.2075 39.9022C37.3695 39.7397 37.4829 39.6247 37.5533 39.5491C40.3808 36.5293 43.7092 33.2528 46.3557 29.4382C47.6786 27.5301 48.831 25.4837 49.6551 23.2602C50.48 21.0376 50.9738 18.6356 50.9731 16.0445C50.9731 15.3278 50.8858 14.5756 50.7421 13.8098C50.5244 12.6619 50.1771 11.485 49.7721 10.3805C49.367 9.27607 48.9042 8.2456 48.4506 7.39612L48.4499 7.39532L47.8688 7.80155L47.2876 8.20618C47.8385 9.23826 48.4288 10.617 48.8732 12.0312C49.0944 12.7375 49.2811 13.4535 49.41 14.138C49.5396 14.821 49.6108 15.4726 49.6101 16.0445C49.6101 18.4095 49.1642 20.5944 48.4006 22.6537C47.2566 25.7419 45.3899 28.5437 43.2654 31.1404C41.1416 33.7379 38.7649 36.1271 36.6228 38.4124C36.5883 38.4486 36.5136 38.5259 36.4115 38.6288C36.0261 39.019 35.2386 39.7985 34.2581 40.7718C32.7873 42.2319 30.8755 44.1295 29.1997 45.8244C28.3614 46.6723 27.5823 47.4679 26.9448 48.1372C26.625 48.471 26.3419 48.7727 26.1024 49.0341C25.8629 49.2963 25.6699 49.5159 25.5226 49.6953L26.0214 50.2255L26.5201 49.6953C26.3123 49.4411 26.0059 49.1017 25.6142 48.6818C24.9295 47.9505 23.9905 46.986 22.9543 45.9362C21.4004 44.3636 19.6281 42.6019 18.1869 41.1708C17.4663 40.4557 16.8281 39.8234 16.342 39.3391C16.099 39.0978 15.894 38.8935 15.7355 38.7342C15.5791 38.5765 15.4664 38.4607 15.4206 38.4124C12.5642 35.3661 9.29082 32.1315 6.75634 28.4721C5.4884 26.6437 4.40571 24.7122 3.64283 22.6537C2.87925 20.5944 2.43335 18.4095 2.43265 16.0445C2.43265 15.4726 2.5045 14.821 2.63341 14.138C2.82712 13.1116 3.14904 12.0143 3.52801 10.9815C3.90699 9.94937 4.34232 8.98004 4.75581 8.20698C5.72438 6.39461 7.08883 4.98364 8.67446 4.02235C10.2587 3.06106 12.0634 2.55266 13.8963 2.55266C14.4936 2.55266 15.0945 2.60656 15.6911 2.71676C17.7741 3.09967 19.6992 4.17278 21.3018 5.76072C21.3187 5.77761 21.3581 5.81864 21.4089 5.87334C21.6005 6.08169 21.9597 6.49033 22.3802 6.98988C23.0121 7.73961 23.7898 8.70331 24.3977 9.54153C24.7013 9.96064 24.9626 10.3508 25.1345 10.6492C25.2197 10.798 25.2831 10.9243 25.3155 11.004C25.331 11.0434 25.3395 11.0699 25.3409 11.0748V11.0756L25.5959 10.9975H25.3339C25.3339 11.0522 25.3409 11.0732 25.3409 11.0756L25.5959 10.9975H25.3339H25.8114L25.3508 10.8568C25.3367 10.9163 25.3339 10.9638 25.3339 10.9975H25.8114L25.3508 10.8568L25.8805 11.0185L25.4325 10.6581C25.3902 10.7264 25.3641 10.798 25.3508 10.8568L25.8805 11.0185L25.4325 10.6581L25.9897 11.1061L26.5504 11.547C26.5518 11.5446 26.5638 11.5261 26.5828 11.4947L26.0214 11.0539L25.4726 11.5156C25.4754 11.5196 25.4853 11.5357 25.5036 11.5647C25.7241 11.9098 26.146 11.987 26.451 11.7384C26.7547 11.4899 26.8265 11.008 26.611 10.6581L26.1629 11.0185L26.6927 10.8568C26.6793 10.7972 26.6532 10.7256 26.611 10.6581L26.1629 11.0185L26.6927 10.8568L26.232 10.9975H26.7096C26.7089 10.9638 26.706 10.9163 26.6927 10.8568L26.232 10.9975H26.7096H26.4151L26.7032 11.0724C26.7046 11.0651 26.7089 11.0426 26.7096 10.9975H26.4151L26.7032 11.0724L26.6349 11.0547L26.7025 11.0756L26.7032 11.0724L26.6349 11.0547L26.7025 11.0756L26.7046 11.0691C26.7103 11.049 26.73 10.9951 26.7631 10.9251C26.8251 10.7924 26.9315 10.6018 27.0688 10.3854C27.309 10.0041 27.6408 9.53831 28.005 9.05646C28.5523 8.33247 29.175 7.56746 29.6942 6.95288C29.9534 6.64478 30.1873 6.3753 30.3725 6.16535C30.4648 6.06077 30.5444 5.97148 30.6092 5.9023C30.6719 5.83312 30.7219 5.78083 30.7416 5.76072H30.7423C32.3435 4.17358 34.2693 3.09967 36.3516 2.71676C36.9489 2.60656 37.5498 2.55266 38.1471 2.55266C39.98 2.55266 41.7847 3.06106 43.3697 4.02235C44.9546 4.98445 46.319 6.39461 47.2876 8.20698V8.20618L47.8688 7.80155Z"/>
</mask>
<path d="M47.8688 7.80155L48.4499 7.39532C47.3482 5.33357 45.795 3.73115 44.0079 2.64758C42.2215 1.56402 40.2005 0.996094 38.1471 0.996094C37.4779 0.996094 36.8045 1.05643 36.1346 1.18031C33.7868 1.61229 31.6285 2.82054 29.8498 4.58545C29.8048 4.62889 29.7569 4.67957 29.6977 4.74473C29.4772 4.98203 29.113 5.39792 28.6812 5.91115C28.0325 6.68098 27.2393 7.66158 26.5948 8.55047C26.2728 8.99613 25.9875 9.41684 25.7699 9.79492C25.6614 9.98557 25.5684 10.1642 25.493 10.346C25.4557 10.4377 25.4226 10.5302 25.3965 10.6339C25.3698 10.7369 25.3479 10.8511 25.3472 10.9975C25.3472 11.0748 25.3536 11.1624 25.3761 11.259C25.3987 11.3539 25.4374 11.4577 25.4966 11.5534L26.0538 11.1061L26.6039 10.6476C26.6018 10.6428 26.5898 10.6235 26.5701 10.5937C26.4398 10.3902 26.2313 10.2728 26.0108 10.2768C25.7896 10.2808 25.5846 10.4055 25.4599 10.6138C25.4578 10.6179 25.4473 10.6339 25.4282 10.6645C25.2162 11.0168 25.2937 11.5003 25.6001 11.7441C25.9072 11.9886 26.3313 11.9025 26.5469 11.5534C26.606 11.4577 26.6448 11.3539 26.6673 11.259C26.6898 11.1624 26.6962 11.0748 26.6962 10.9975C26.6941 10.7908 26.6539 10.6452 26.6095 10.5076C26.5673 10.3797 26.5166 10.2607 26.4574 10.14C26.3475 9.91398 26.2101 9.67909 26.0495 9.4273C25.7685 8.98728 25.417 8.49738 25.038 7.99783C24.4702 7.24811 23.8412 6.47827 23.3157 5.85564C23.053 5.54433 22.8163 5.27082 22.6247 5.05443C22.5289 4.94583 22.445 4.85252 22.3739 4.77529C22.3021 4.69646 22.245 4.63613 22.1943 4.58545C20.4142 2.82054 18.2566 1.61229 15.9088 1.18031C15.2389 1.05643 14.5655 0.996094 13.8963 0.996094C11.8429 0.996094 9.82266 1.56402 8.03556 2.64758C6.24846 3.73115 4.69523 5.33357 3.59352 7.39532C2.98773 8.52956 2.36643 9.98316 1.88814 11.5059C1.64864 12.2661 1.44577 13.044 1.30136 13.8098C1.15766 14.5756 1.07031 15.3278 1.07031 16.0445C1.06961 18.6356 1.5634 21.0376 2.38827 23.2602C3.62522 26.5962 5.59758 29.5316 7.78126 32.2031C9.96706 34.8738 12.3698 37.2854 14.4901 39.5491C14.5443 39.607 14.6218 39.6858 14.7282 39.7936C15.1241 40.1942 15.9095 40.9729 16.8907 41.9463C18.3616 43.4055 20.2705 45.3007 21.9393 46.9884C22.774 47.8331 23.5489 48.6254 24.1772 49.2835C24.4914 49.6125 24.7689 49.9085 24.9985 50.1587C25.2268 50.4081 25.4078 50.6148 25.5226 50.7556C25.6515 50.914 25.8319 51.0033 26.0214 51.0033C26.2115 51.0033 26.3912 50.914 26.5201 50.7556C26.6835 50.5545 26.9794 50.2247 27.3597 49.8176C28.0275 49.1049 28.9609 48.1452 29.9921 47.1019C31.5397 45.5348 33.3092 43.7756 34.7498 42.3453C35.4704 41.6301 36.1086 40.9979 36.596 40.5128C36.8405 40.2699 37.0468 40.0631 37.2075 39.9022C37.3695 39.7397 37.4829 39.6247 37.5533 39.5491C40.3808 36.5293 43.7092 33.2528 46.3557 29.4382C47.6786 27.5301 48.831 25.4837 49.6551 23.2602C50.48 21.0376 50.9738 18.6356 50.9731 16.0445C50.9731 15.3278 50.8858 14.5756 50.7421 13.8098C50.5244 12.6619 50.1771 11.485 49.7721 10.3805C49.367 9.27607 48.9042 8.2456 48.4506 7.39612L48.4499 7.39532L47.8688 7.80155L47.2876 8.20618C47.8385 9.23826 48.4288 10.617 48.8732 12.0312C49.0944 12.7375 49.2811 13.4535 49.41 14.138C49.5396 14.821 49.6108 15.4726 49.6101 16.0445C49.6101 18.4095 49.1642 20.5944 48.4006 22.6537C47.2566 25.7419 45.3899 28.5437 43.2654 31.1404C41.1416 33.7379 38.7649 36.1271 36.6228 38.4124C36.5883 38.4486 36.5136 38.5259 36.4115 38.6288C36.0261 39.019 35.2386 39.7985 34.2581 40.7718C32.7873 42.2319 30.8755 44.1295 29.1997 45.8244C28.3614 46.6723 27.5823 47.4679 26.9448 48.1372C26.625 48.471 26.3419 48.7727 26.1024 49.0341C25.8629 49.2963 25.6699 49.5159 25.5226 49.6953L26.0214 50.2255L26.5201 49.6953C26.3123 49.4411 26.0059 49.1017 25.6142 48.6818C24.9295 47.9505 23.9905 46.986 22.9543 45.9362C21.4004 44.3636 19.6281 42.6019 18.1869 41.1708C17.4663 40.4557 16.8281 39.8234 16.342 39.3391C16.099 39.0978 15.894 38.8935 15.7355 38.7342C15.5791 38.5765 15.4664 38.4607 15.4206 38.4124C12.5642 35.3661 9.29082 32.1315 6.75634 28.4721C5.4884 26.6437 4.40571 24.7122 3.64283 22.6537C2.87925 20.5944 2.43335 18.4095 2.43265 16.0445C2.43265 15.4726 2.5045 14.821 2.63341 14.138C2.82712 13.1116 3.14904 12.0143 3.52801 10.9815C3.90699 9.94937 4.34232 8.98004 4.75581 8.20698C5.72438 6.39461 7.08883 4.98364 8.67446 4.02235C10.2587 3.06106 12.0634 2.55266 13.8963 2.55266C14.4936 2.55266 15.0945 2.60656 15.6911 2.71676C17.7741 3.09967 19.6992 4.17278 21.3018 5.76072C21.3187 5.77761 21.3581 5.81864 21.4089 5.87334C21.6005 6.08169 21.9597 6.49033 22.3802 6.98988C23.0121 7.73961 23.7898 8.70331 24.3977 9.54153C24.7013 9.96064 24.9626 10.3508 25.1345 10.6492C25.2197 10.798 25.2831 10.9243 25.3155 11.004C25.331 11.0434 25.3395 11.0699 25.3409 11.0748V11.0756L25.5959 10.9975H25.3339C25.3339 11.0522 25.3409 11.0732 25.3409 11.0756L25.5959 10.9975H25.3339H25.8114L25.3508 10.8568C25.3367 10.9163 25.3339 10.9638 25.3339 10.9975H25.8114L25.3508 10.8568L25.8805 11.0185L25.4325 10.6581C25.3902 10.7264 25.3641 10.798 25.3508 10.8568L25.8805 11.0185L25.4325 10.6581L25.9897 11.1061L26.5504 11.547C26.5518 11.5446 26.5638 11.5261 26.5828 11.4947L26.0214 11.0539L25.4726 11.5156C25.4754 11.5196 25.4853 11.5357 25.5036 11.5647C25.7241 11.9098 26.146 11.987 26.451 11.7384C26.7547 11.4899 26.8265 11.008 26.611 10.6581L26.1629 11.0185L26.6927 10.8568C26.6793 10.7972 26.6532 10.7256 26.611 10.6581L26.1629 11.0185L26.6927 10.8568L26.232 10.9975H26.7096C26.7089 10.9638 26.706 10.9163 26.6927 10.8568L26.232 10.9975H26.7096H26.4151L26.7032 11.0724C26.7046 11.0651 26.7089 11.0426 26.7096 10.9975H26.4151L26.7032 11.0724L26.6349 11.0547L26.7025 11.0756L26.7032 11.0724L26.6349 11.0547L26.7025 11.0756L26.7046 11.0691C26.7103 11.049 26.73 10.9951 26.7631 10.9251C26.8251 10.7924 26.9315 10.6018 27.0688 10.3854C27.309 10.0041 27.6408 9.53831 28.005 9.05646C28.5523 8.33247 29.175 7.56746 29.6942 6.95288C29.9534 6.64478 30.1873 6.3753 30.3725 6.16535C30.4648 6.06077 30.5444 5.97148 30.6092 5.9023C30.6719 5.83312 30.7219 5.78083 30.7416 5.76072H30.7423C32.3435 4.17358 34.2693 3.09967 36.3516 2.71676C36.9489 2.60656 37.5498 2.55266 38.1471 2.55266C39.98 2.55266 41.7847 3.06106 43.3697 4.02235C44.9546 4.98445 46.319 6.39461 47.2876 8.20698V8.20618L47.8688 7.80155Z" fill="#289CB0"/>
<path d="M47.8688 7.80155L48.1545 8.21189L48.1552 8.21135L47.8688 7.80155ZM25.5959 10.9975L25.7422 11.4757L25.5959 10.4975V10.9975ZM25.8114 10.9975V11.4975L25.9576 10.5194L25.8114 10.9975ZM25.3508 10.8568L25.4967 10.3785L25.2046 11.3349L25.3508 10.8568ZM25.8805 11.0185L25.7345 11.4967L26.1939 10.6289L25.8805 11.0185ZM26.1629 11.0185L25.8496 10.6289L26.3089 11.4967L26.1629 11.0185ZM26.6927 10.8568L26.8388 11.3349L26.5467 10.3785L26.6927 10.8568ZM26.232 10.9975L26.0859 10.5194L26.232 11.4975V10.9975ZM26.4151 10.9975V10.4975L26.2895 11.4815L26.4151 10.9975ZM26.7032 11.0724L26.5779 11.5564L26.8289 10.5884L26.7032 11.0724ZM26.6349 11.0547L26.7603 10.5706L26.4872 11.5323L26.6349 11.0547ZM48.1552 8.21135L48.7364 7.80512L48.1634 6.98551L47.5823 7.39175L48.1552 8.21135ZM47.5831 7.39122L47.0019 7.79584L47.5733 8.61651L48.1545 8.21189L47.5831 7.39122ZM25.4872 11.5537L25.7422 11.4757L25.4496 10.5194L25.1946 10.5975L25.4872 11.5537ZM25.5959 10.4975H25.3339V11.4975H25.5959V10.4975ZM25.3339 11.4975H25.8114V10.4975H25.3339V11.4975ZM25.9576 10.5194L25.4969 10.3786L25.2046 11.3349L25.6653 11.4757L25.9576 10.5194ZM25.2048 11.335L25.7345 11.4967L26.0264 10.5402L25.4967 10.3785L25.2048 11.335ZM26.1939 10.6289L25.7459 10.2685L25.1191 11.0477L25.5671 11.4081L26.1939 10.6289ZM26.2976 10.2685L25.8496 10.6289L26.4763 11.4081L26.9243 11.0477L26.2976 10.2685ZM26.3089 11.4967L26.8386 11.335L26.5467 10.3785L26.017 10.5402L26.3089 11.4967ZM26.5465 10.3786L26.0859 10.5194L26.3781 11.4757L26.8388 11.3349L26.5465 10.3786ZM26.232 11.4975H26.7096V10.4975H26.232V11.4975ZM26.7096 10.4975H26.4151V11.4975H26.7096V10.4975ZM26.2895 11.4815L26.5776 11.5563L26.8289 10.5884L26.5408 10.5136L26.2895 11.4815ZM26.8286 10.5883L26.7603 10.5706L26.5095 11.5387L26.5779 11.5564L26.8286 10.5883ZM26.4872 11.5323L26.5548 11.5532L26.8503 10.5979L26.7826 10.577L26.4872 11.5323ZM48.4499 7.39532L47.5679 7.8666L47.622 7.96779L47.6976 8.05411L48.4499 7.39532ZM44.0079 2.64758L43.4892 3.50259L43.4894 3.50268L44.0079 2.64758ZM36.1346 1.18031L36.3156 2.1638L36.3165 2.16364L36.1346 1.18031ZM29.8498 4.58545L30.5437 5.30556L30.549 5.30046L30.5542 5.29529L29.8498 4.58545ZM29.6977 4.74473L30.4303 5.42543L30.438 5.417L29.6977 4.74473ZM28.6812 5.91115L29.4459 6.55556L29.4464 6.55495L28.6812 5.91115ZM26.5948 8.55047L25.7852 7.96345L25.7841 7.96492L26.5948 8.55047ZM25.7699 9.79492L24.9032 9.29599L24.9007 9.30037L25.7699 9.79492ZM25.493 10.346L24.5693 9.96297L24.5669 9.9689L25.493 10.346ZM25.3965 10.6339L26.3644 10.8856L26.3664 10.8775L25.3965 10.6339ZM25.3472 10.9975L24.3472 10.9927V10.9975H25.3472ZM25.3761 11.259L24.4023 11.4864L24.4032 11.49L25.3761 11.259ZM25.4966 11.5534L24.646 12.0792L25.2406 13.0412L26.1226 12.3332L25.4966 11.5534ZM26.0538 11.1061L26.6797 11.886L26.6869 11.8802L26.694 11.8743L26.0538 11.1061ZM26.6039 10.6476L27.2441 11.4158L27.8213 10.9348L27.52 10.2466L26.6039 10.6476ZM26.5701 10.5937L25.7279 11.133L25.7322 11.1396L25.7365 11.1461L26.5701 10.5937ZM26.0108 10.2768L26.029 11.2766L26.029 11.2766L26.0108 10.2768ZM25.4599 10.6138L24.6019 10.1003L24.5876 10.1242L24.5747 10.1488L25.4599 10.6138ZM25.4282 10.6645L24.5792 10.1362L24.5752 10.1425L24.5714 10.1489L25.4282 10.6645ZM25.6001 11.7441L26.223 10.9618L26.2226 10.9614L25.6001 11.7441ZM26.5469 11.5534L25.6962 11.0276L25.696 11.0281L26.5469 11.5534ZM26.6673 11.259L27.6403 11.49L27.6411 11.4864L26.6673 11.259ZM26.6962 10.9975H27.6962L27.6961 10.9873L26.6962 10.9975ZM26.6095 10.5076L27.5613 10.2006L27.559 10.1939L26.6095 10.5076ZM26.4574 10.14L25.558 10.5772L25.5595 10.5803L26.4574 10.14ZM26.0495 9.4273L26.8926 8.88952L26.8923 8.889L26.0495 9.4273ZM25.038 7.99783L24.2408 8.60154L24.2413 8.60222L25.038 7.99783ZM23.3157 5.85564L24.0799 5.21066L23.3157 5.85564ZM22.6247 5.05443L21.8748 5.71597L21.876 5.71735L22.6247 5.05443ZM22.3739 4.77529L21.6348 5.44892L21.6384 5.45286L22.3739 4.77529ZM22.1943 4.58545L22.9011 3.87807L22.8984 3.87533L22.1943 4.58545ZM15.9088 1.18031L15.7269 2.16364L15.7278 2.1638L15.9088 1.18031ZM8.03556 2.64758L7.51709 1.79249V1.79249L8.03556 2.64758ZM3.59352 7.39532L2.71154 6.92403L2.71145 6.9242L3.59352 7.39532ZM1.88814 11.5059L2.84192 11.8064L2.84218 11.8056L1.88814 11.5059ZM1.30136 13.8098L0.318678 13.6245L0.318514 13.6254L1.30136 13.8098ZM1.07031 16.0445L2.07031 16.0448V16.0445H1.07031ZM2.38827 23.2602L3.32589 22.9126L3.32579 22.9123L2.38827 23.2602ZM7.78126 32.2031L7.00701 32.8359L7.0074 32.8364L7.78126 32.2031ZM14.4901 39.5491L15.22 38.8655L15.2199 38.8655L14.4901 39.5491ZM14.7282 39.7936L14.0164 40.496L14.0169 40.4965L14.7282 39.7936ZM16.8907 41.9463L17.5951 41.2364L17.595 41.2363L16.8907 41.9463ZM21.9393 46.9884L22.6506 46.2855L22.6504 46.2853L21.9393 46.9884ZM24.1772 49.2835L23.454 49.9741L24.1772 49.2835ZM24.9985 50.1587L25.7362 49.4835L25.7352 49.4825L24.9985 50.1587ZM25.5226 50.7556L26.2984 50.1245L26.2976 50.1235L25.5226 50.7556ZM26.5201 50.7556L27.2958 51.3866L27.2962 51.3862L26.5201 50.7556ZM27.3597 49.8176L26.63 49.1339L26.6291 49.1348L27.3597 49.8176ZM29.9921 47.1019L30.7034 47.8048L30.7036 47.8045L29.9921 47.1019ZM34.7498 42.3453L34.0453 41.6355L34.0452 41.6357L34.7498 42.3453ZM36.596 40.5128L35.8911 39.8035L35.8906 39.804L36.596 40.5128ZM37.2075 39.9022L37.9152 40.6087L37.9156 40.6083L37.2075 39.9022ZM37.5533 39.5491L36.8233 38.8656L36.8216 38.8675L37.5533 39.5491ZM46.3557 29.4382L47.1773 30.0083L47.1775 30.008L46.3557 29.4382ZM49.6551 23.2602L48.7176 22.9123L48.7175 22.9127L49.6551 23.2602ZM50.9731 16.0445H49.9731V16.0448L50.9731 16.0445ZM50.7421 13.8098L51.7249 13.6254L51.7246 13.6235L50.7421 13.8098ZM49.7721 10.3805L48.8332 10.7248L49.7721 10.3805ZM48.4506 7.39612L49.3327 6.92506L49.2786 6.82374L49.2029 6.73733L48.4506 7.39612ZM47.2876 8.20618L48.1698 7.73532L46.2876 8.20618H47.2876ZM48.8732 12.0312L49.8275 11.7324L49.8272 11.7314L48.8732 12.0312ZM49.41 14.138L48.4273 14.3231L48.4275 14.3245L49.41 14.138ZM49.6101 16.0445L48.6101 16.0433V16.0445H49.6101ZM48.4006 22.6537L47.463 22.306L47.4629 22.3063L48.4006 22.6537ZM43.2654 31.1404L42.4914 30.5072L42.4912 30.5074L43.2654 31.1404ZM36.6228 38.4124L37.3465 39.1025L37.3524 39.0963L36.6228 38.4124ZM36.4115 38.6288L35.7015 37.9246L35.7 37.9261L36.4115 38.6288ZM34.2581 40.7718L34.9626 41.4815L34.2581 40.7718ZM29.1997 45.8244L28.4886 45.1213L28.4885 45.1214L29.1997 45.8244ZM26.9448 48.1372L27.667 48.8289L27.6689 48.8269L26.9448 48.1372ZM26.1024 49.0341L25.365 48.3586L25.364 48.3597L26.1024 49.0341ZM25.5226 49.6953L24.7496 49.0609L24.192 49.7404L24.7943 50.3806L25.5226 49.6953ZM26.0214 50.2255L25.293 50.9107L26.0214 51.6849L26.7497 50.9107L26.0214 50.2255ZM26.5201 49.6953L27.2484 50.3806L27.8495 49.7416L27.2943 49.0624L26.5201 49.6953ZM25.6142 48.6818L26.3455 47.9997L26.3442 47.9983L25.6142 48.6818ZM22.9543 45.9362L23.666 45.2338L23.6657 45.2334L22.9543 45.9362ZM18.1869 41.1708L18.8915 40.4612L18.8913 40.461L18.1869 41.1708ZM16.342 39.3391L17.0478 38.6307L17.0466 38.6296L16.342 39.3391ZM15.7355 38.7342L15.0255 39.4384L15.0267 39.4396L15.7355 38.7342ZM15.4206 38.4124L14.6911 39.0964L14.6951 39.1007L15.4206 38.4124ZM6.75634 28.4721L7.57842 27.9027L7.5781 27.9023L6.75634 28.4721ZM3.64283 22.6537L4.58051 22.3062L4.58045 22.306L3.64283 22.6537ZM2.43265 16.0445H1.43265L1.43265 16.0448L2.43265 16.0445ZM2.63341 14.138L3.61606 14.3235L3.61606 14.3235L2.63341 14.138ZM3.52801 10.9815L2.5893 10.6368L2.58921 10.637L3.52801 10.9815ZM4.75581 8.20698L5.63759 8.67863L5.63776 8.67832L4.75581 8.20698ZM8.67446 4.02235L9.19288 4.87748L9.19322 4.87727L8.67446 4.02235ZM15.6911 2.71676L15.5095 3.70013L15.5103 3.70028L15.6911 2.71676ZM21.3018 5.76072L22.0086 5.05333L22.0056 5.05038L21.3018 5.76072ZM21.4089 5.87334L22.1449 5.19643L22.1422 5.19343L21.4089 5.87334ZM22.3802 6.98988L21.6152 7.6339L21.6156 7.63432L22.3802 6.98988ZM24.3977 9.54153L25.2075 8.95488L25.2072 8.95443L24.3977 9.54153ZM25.1345 10.6492L26.0023 10.1522L26.0011 10.1502L25.1345 10.6492ZM25.3155 11.004L26.2463 10.6381L26.2418 10.6271L25.3155 11.004ZM25.3409 11.0748H26.3409V10.9318L26.3008 10.7946L25.3409 11.0748ZM25.3508 10.8568L26.3239 11.0871L26.3258 11.079L25.3508 10.8568ZM25.4325 10.6581L26.0591 9.87879L25.177 9.16943L24.5819 10.1323L25.4325 10.6581ZM25.9897 11.1061L25.363 11.8855L25.3716 11.8923L25.9897 11.1061ZM26.5504 11.547L25.9323 12.3331L26.8351 13.0428L27.414 12.0511L26.5504 11.547ZM26.5828 11.4947L27.4379 12.0131L27.8973 11.2554L27.2003 10.7082L26.5828 11.4947ZM26.0214 11.0539L26.6389 10.2673L25.9995 9.76529L25.3775 10.2887L26.0214 11.0539ZM25.4726 11.5156L24.8288 10.7504L24.1285 11.3397L24.6536 12.0893L25.4726 11.5156ZM25.5036 11.5647L24.6584 12.0992L24.6609 12.1031L25.5036 11.5647ZM26.451 11.7384L27.0828 12.5136L27.0845 12.5122L26.451 11.7384ZM26.611 10.6581L27.4588 10.1278L25.7595 11.1825L26.611 10.6581ZM26.6927 10.8568L25.717 11.0761V11.0761L26.6927 10.8568ZM26.7096 10.9975L27.7094 11.0132L27.7097 10.9949L27.7094 10.9767L26.7096 10.9975ZM26.7032 11.0724L27.6801 11.2862L27.6826 11.2748L27.6848 11.2633L26.7032 11.0724ZM26.7025 11.0756L25.7257 10.8617L27.6526 11.3876L26.7025 11.0756ZM26.7046 11.0691L27.6547 11.3811L27.6616 11.3602L27.6675 11.339L26.7046 11.0691ZM26.7631 10.9251L27.6671 11.3528L27.6692 11.3483L26.7631 10.9251ZM27.0688 10.3854L27.9131 10.9213L27.9149 10.9184L27.0688 10.3854ZM28.005 9.05646L27.2073 8.4534L27.2072 8.4535L28.005 9.05646ZM29.6942 6.95288L30.4581 7.59819L30.4594 7.59669L29.6942 6.95288ZM30.3725 6.16535L29.6227 5.5037L29.6227 5.50371L30.3725 6.16535ZM30.6092 5.9023L31.339 6.58595L31.3447 6.57992L31.3502 6.5738L30.6092 5.9023ZM30.7416 5.76072V4.76072H30.3217L30.0277 5.06052L30.7416 5.76072ZM30.7423 5.76072V6.76072H31.154L31.4463 6.47092L30.7423 5.76072ZM36.3516 2.71676L36.5324 3.70027L36.533 3.70017L36.3516 2.71676ZM43.3697 4.02235L43.8886 3.16752L43.8883 3.16733L43.3697 4.02235ZM47.2876 8.20698L46.4057 8.67832L48.2876 8.20698H47.2876ZM49.3319 6.92403C48.1467 4.70599 46.4687 2.9702 44.5263 1.79249L43.4894 3.50268C45.1212 4.4921 46.5497 5.96114 47.5679 7.8666L49.3319 6.92403ZM44.5265 1.79258C42.5859 0.615515 40.386 -0.00390625 38.1471 -0.00390625V1.99609C40.015 1.99609 41.857 2.51252 43.4892 3.50259L44.5265 1.79258ZM38.1471 -0.00390625C37.4178 -0.00390625 36.6835 0.0618529 35.9528 0.19698L36.3165 2.16364C36.9256 2.051 37.5381 1.99609 38.1471 1.99609V-0.00390625ZM35.9537 0.196816C33.3834 0.669726 31.0484 1.98742 29.1455 3.87561L30.5542 5.29529C32.2086 3.65365 34.1902 2.55484 36.3156 2.1638L35.9537 0.196816ZM29.156 3.86534C29.0872 3.93166 29.0219 4.00139 28.9574 4.07245L30.438 5.417C30.4918 5.35775 30.5224 5.32612 30.5437 5.30556L29.156 3.86534ZM28.9651 4.06407C28.7282 4.31898 28.352 4.74923 27.916 5.26735L29.4464 6.55495C29.8741 6.04662 30.2262 5.64508 30.4303 5.42539L28.9651 4.06407ZM27.9165 5.26673C27.2599 6.04587 26.4497 7.04705 25.7852 7.96345L27.4043 9.1375C28.0289 8.27611 28.805 7.31609 29.4459 6.55556L27.9165 5.26673ZM25.7841 7.96492C25.4545 8.42118 25.1462 8.87404 24.9032 9.29599L26.6365 10.2939C26.8289 9.95964 27.0911 9.57107 27.4054 9.13603L25.7841 7.96492ZM24.9007 9.30037C24.782 9.50902 24.6669 9.7276 24.5693 9.96298L26.4168 10.7289C26.47 10.6007 26.5408 10.4621 26.639 10.2895L24.9007 9.30037ZM24.5669 9.9689C24.5184 10.0879 24.4677 10.2269 24.4267 10.3903L26.3664 10.8775C26.3775 10.8334 26.393 10.7874 26.4192 10.723L24.5669 9.9689ZM24.4287 10.3823C24.3876 10.5405 24.3485 10.7403 24.3472 10.9927L26.3472 11.0024C26.3473 10.9788 26.349 10.9612 26.3512 10.9467C26.3535 10.9316 26.3571 10.9134 26.3644 10.8855L24.4287 10.3823ZM24.3472 10.9975C24.3472 11.1312 24.3583 11.2979 24.4023 11.4864L26.3499 11.0316C26.3492 11.0287 26.3486 11.0253 26.3482 11.0206C26.3477 11.0159 26.3472 11.0087 26.3472 10.9975H24.3472ZM24.4032 11.49C24.4462 11.6713 24.5216 11.878 24.646 12.0792L26.3472 11.0276C26.351 11.0338 26.3518 11.0363 26.3511 11.0347C26.3505 11.033 26.3496 11.0304 26.3491 11.0279L24.4032 11.49ZM26.1226 12.3332L26.6797 11.886L25.4278 10.3263L24.8706 10.7736L26.1226 12.3332ZM26.694 11.8743L27.2441 11.4158L25.9637 9.87944L25.4135 10.338L26.694 11.8743ZM27.52 10.2466C27.4931 10.1851 27.4638 10.1366 27.4637 10.1364C27.4551 10.1218 27.4471 10.1089 27.4414 10.0997C27.4295 10.0807 27.4165 10.0607 27.4037 10.0413L25.7365 11.1461C25.7434 11.1565 25.7462 11.161 25.7458 11.1603C25.7455 11.1599 25.7447 11.1586 25.7435 11.1566C25.7423 11.1547 25.7402 11.1511 25.7374 11.1463C25.7348 11.142 25.7298 11.1333 25.7236 11.1218C25.7204 11.1159 25.7158 11.1073 25.7104 11.0967C25.7055 11.0869 25.6972 11.0701 25.6879 11.0487L27.52 10.2466ZM27.4122 10.0545C27.1142 9.58906 26.5953 9.26595 25.9926 9.27694L26.029 11.2766C25.8673 11.2796 25.7653 11.1913 25.7279 11.133L27.4122 10.0545ZM25.9926 9.27694C25.3912 9.28788 24.885 9.62722 24.6019 10.1003L26.318 11.1273C26.2843 11.1837 26.1881 11.2737 26.029 11.2766L25.9926 9.27694ZM24.5747 10.1488C24.5785 10.1415 24.5819 10.1353 24.5845 10.1305C24.5872 10.1256 24.5896 10.1215 24.5915 10.1181C24.5952 10.1116 24.5983 10.1064 24.6002 10.1032C24.6022 10.0998 24.6039 10.0971 24.6049 10.0954C24.606 10.0936 24.6068 10.0923 24.6073 10.0915C24.6082 10.0901 24.6086 10.0895 24.608 10.0904C24.6075 10.0911 24.6068 10.0923 24.6055 10.0944C24.6004 10.1025 24.591 10.1172 24.5792 10.1362L26.2773 11.1928C26.2845 11.1812 26.2899 11.1727 26.2954 11.1641C26.2974 11.1608 26.302 11.1537 26.3062 11.1468C26.3084 11.1433 26.3125 11.1367 26.3173 11.1287C26.3203 11.1236 26.332 11.1041 26.3452 11.0789L24.5747 10.1488ZM24.5714 10.1489C24.1193 10.9001 24.2503 11.9481 24.9776 12.5267L26.2226 10.9614C26.2905 11.0154 26.3046 11.0705 26.3073 11.0875C26.3101 11.1054 26.3104 11.138 26.2851 11.1801L24.5714 10.1489ZM24.9772 12.5264C25.7946 13.1772 26.8956 12.892 27.3977 12.0787L25.696 11.0281C25.7253 10.9805 25.7951 10.9143 25.9099 10.8911C26.0288 10.8671 26.1463 10.9006 26.223 10.9618L24.9772 12.5264ZM27.3975 12.0792C27.5218 11.878 27.5972 11.6713 27.6402 11.49L25.6944 11.0279C25.6938 11.0304 25.6929 11.033 25.6923 11.0347C25.6916 11.0363 25.6924 11.0338 25.6962 11.0276L27.3975 12.0792ZM27.6411 11.4864C27.6851 11.2979 27.6962 11.1312 27.6962 10.9975H25.6962C25.6962 11.0087 25.6957 11.0159 25.6952 11.0206C25.6948 11.0253 25.6942 11.0287 25.6935 11.0316L27.6411 11.4864ZM27.6961 10.9873C27.6926 10.6372 27.62 10.3828 27.5612 10.2006L25.6578 10.8147C25.6756 10.8698 25.6833 10.8984 25.688 10.9223C25.6922 10.9433 25.6958 10.9693 25.6962 11.0078L27.6961 10.9873ZM27.559 10.1939C27.4995 10.0138 27.4299 9.85197 27.3552 9.69973L25.5595 10.5803C25.6032 10.6694 25.635 10.7457 25.66 10.8214L27.559 10.1939ZM27.3567 9.70281C27.2238 9.42932 27.0644 9.15887 26.8926 8.88952L25.2064 9.96508C25.3559 10.1993 25.4712 10.3986 25.558 10.5772L27.3567 9.70281ZM26.8923 8.889C26.5911 8.41752 26.222 7.90402 25.8347 7.39344L24.2413 8.60222C24.6119 9.09074 24.9458 9.55703 25.2068 9.9656L26.8923 8.889ZM25.8352 7.39412C25.2534 6.6258 24.6124 5.84154 24.0799 5.21066L22.5515 6.50062C23.07 7.115 23.6871 7.87041 24.2408 8.60154L25.8352 7.39412ZM24.0799 5.21066C23.8127 4.89408 23.5708 4.61453 23.3734 4.39151L21.876 5.71735C22.0617 5.92711 22.2932 6.19457 22.5515 6.50062L24.0799 5.21066ZM23.3746 4.39289C23.2757 4.28079 23.1868 4.18182 23.1094 4.09773L21.6384 5.45286C21.7033 5.52322 21.7821 5.61088 21.8748 5.71597L23.3746 4.39289ZM23.113 4.10168C23.0353 4.0165 22.9669 3.94377 22.9011 3.87807L21.4874 5.29283C21.5231 5.32849 21.5688 5.37643 21.6348 5.44891L23.113 4.10168ZM22.8984 3.87533C20.9943 1.98749 18.6601 0.669749 16.0897 0.196816L15.7278 2.1638C17.8531 2.55482 19.8341 3.65358 21.4902 5.29557L22.8984 3.87533ZM16.0906 0.19698C15.3599 0.0618529 14.6256 -0.00390625 13.8963 -0.00390625V1.99609C14.5053 1.99609 15.1179 2.051 15.7269 2.16364L16.0906 0.19698ZM13.8963 -0.00390625C11.6574 -0.00390625 9.45817 0.615562 7.51709 1.79249L8.55403 3.50268C10.1871 2.51248 12.0285 1.99609 13.8963 1.99609V-0.00390625ZM7.51709 1.79249C5.57472 2.9702 3.89676 4.70599 2.71154 6.92403L4.4755 7.8666C5.49369 5.96114 6.9222 4.4921 8.55403 3.50268L7.51709 1.79249ZM2.71145 6.9242C2.07552 8.11487 1.43044 9.62603 0.934092 11.2063L2.84218 11.8056C3.30243 10.3403 3.89994 8.94425 4.4756 7.86643L2.71145 6.9242ZM0.934355 11.2054C0.685057 11.9967 0.471621 12.8134 0.318679 13.6245L2.28404 13.9951C2.41991 13.2746 2.61222 12.5355 2.84192 11.8064L0.934355 11.2054ZM0.318514 13.6254C0.166966 14.433 0.0703133 15.2492 0.0703133 16.0445H2.07031C2.07031 15.4064 2.14836 14.7182 2.28421 13.9942L0.318514 13.6254ZM0.0703133 16.0442C0.0695735 18.7656 0.588703 21.2854 1.45075 23.6082L3.32579 22.9123C2.5381 20.7899 2.06964 18.5056 2.07031 16.0448L0.0703133 16.0442ZM1.45065 23.6079C2.74063 27.0869 4.78647 30.1193 7.00701 32.8359L8.55552 31.5702C6.40869 28.9438 4.50982 26.1055 3.32589 22.9126L1.45065 23.6079ZM7.0074 32.8364C9.2214 35.5416 11.6677 37.9986 13.7603 40.2327L15.2199 38.8655C13.072 36.5722 10.7127 34.206 8.55513 31.5697L7.0074 32.8364ZM13.7602 40.2326C13.8253 40.3021 13.913 40.3912 14.0164 40.496L15.44 39.0913C15.3307 38.9805 15.2634 38.9119 15.22 38.8655L13.7602 40.2326ZM14.0169 40.4965C14.4173 40.9017 15.2078 41.6854 16.1865 42.6562L17.595 41.2363C16.6112 40.2604 15.8308 39.4868 15.4395 39.0907L14.0169 40.4965ZM16.1864 42.6562C17.6577 44.1158 19.5633 46.0078 21.2282 47.6915L22.6504 46.2853C20.9777 44.5937 19.0655 42.6952 17.5951 41.2364L16.1864 42.6562ZM21.228 47.6914C22.0611 48.5344 22.8314 49.3221 23.454 49.9741L24.9004 48.5929C24.2663 47.9288 23.4869 47.1318 22.6506 46.2855L21.228 47.6914ZM23.454 49.9741C23.7646 50.2994 24.0376 50.5906 24.2619 50.8349L25.7352 49.4825C25.5003 49.2265 25.2181 48.9255 24.9004 48.5929L23.454 49.9741ZM24.2609 50.8338C24.4839 51.0776 24.6504 51.2683 24.7477 51.3876L26.2976 50.1235C26.1652 49.9613 25.9696 49.7385 25.7362 49.4835L24.2609 50.8338ZM24.7469 51.3866C25.0498 51.759 25.5066 52.0033 26.0214 52.0033V50.0033C26.1571 50.0033 26.2533 50.0691 26.2984 50.1245L24.7469 51.3866ZM26.0214 52.0033C26.5374 52.0033 26.9933 51.7585 27.2958 51.3866L25.7443 50.1245C25.789 50.0696 25.8857 50.0033 26.0214 50.0033V52.0033ZM27.2962 51.3862C27.4359 51.2142 27.7111 50.9062 28.0904 50.5004L26.6291 49.1348C26.2476 49.5431 25.9311 49.8947 25.744 50.1249L27.2962 51.3862ZM28.0895 50.5013C28.7481 49.7984 29.674 48.8463 30.7034 47.8048L29.2809 46.3989C28.2478 47.4442 27.307 48.4113 26.63 49.1339L28.0895 50.5013ZM30.7036 47.8045C32.2473 46.2415 34.0136 44.4854 35.4543 43.0549L34.0452 41.6357C32.6049 43.0657 30.8321 44.8282 29.2806 46.3992L30.7036 47.8045ZM35.4542 43.0551C36.1738 42.3409 36.8133 41.7073 37.3014 41.2216L35.8906 39.804C35.4038 40.2884 34.7669 40.9194 34.0453 41.6355L35.4542 43.0551ZM37.301 41.2221C37.5469 40.9776 37.7545 40.7697 37.9152 40.6087L36.4997 39.1957C36.3392 39.3566 36.134 39.5621 35.8911 39.8035L37.301 41.2221ZM37.9156 40.6083C38.0751 40.4483 38.2009 40.321 38.285 40.2307L36.8216 38.8675C36.7648 38.9284 36.6638 39.0312 36.4993 39.1962L37.9156 40.6083ZM38.2833 40.2326C41.0723 37.2539 44.4766 33.901 47.1773 30.0083L45.534 28.8682C42.9417 32.6047 39.6894 35.8046 36.8234 38.8656L38.2833 40.2326ZM47.1775 30.008C48.5355 28.0492 49.7327 25.9283 50.5928 23.6078L48.7175 22.9127C47.9293 25.0391 46.8216 27.0111 45.5339 28.8685L47.1775 30.008ZM50.5927 23.6082C51.4547 21.2854 51.9738 18.7656 51.9731 16.0442L49.9731 16.0448C49.9738 18.5056 49.5053 20.7899 48.7176 22.9123L50.5927 23.6082ZM51.9731 16.0445C51.9731 15.2492 51.8765 14.433 51.7249 13.6254L49.7592 13.9942C49.8951 14.7182 49.9731 15.4064 49.9731 16.0445H51.9731ZM51.7246 13.6235C51.4946 12.4105 51.1304 11.18 50.7109 10.0362L48.8332 10.7248C49.2238 11.79 49.5542 12.9133 49.7596 13.9961L51.7246 13.6235ZM50.7109 10.0362C50.2913 8.89183 49.8099 7.81865 49.3327 6.92506L47.5685 7.86718C47.9986 8.67254 48.4428 9.66031 48.8332 10.7248L50.7109 10.0362ZM49.2029 6.73733L49.2022 6.73653L47.6976 8.05411L47.6983 8.05491L49.2029 6.73733ZM46.4054 8.67704C46.9262 9.65288 47.4928 10.9743 47.9193 12.3311L49.8272 11.7314C49.3647 10.2598 48.7507 8.82364 48.1698 7.73532L46.4054 8.67704ZM47.919 12.3301C48.131 13.0072 48.307 13.6845 48.4273 14.3231L50.3927 13.953C50.2552 13.2224 50.0579 12.4679 49.8275 11.7324L47.919 12.3301ZM48.4275 14.3245C48.5487 14.963 48.6107 15.5499 48.6101 16.0433L50.6101 16.0458C50.6109 15.3952 50.5305 14.6789 50.3925 13.9516L48.4275 14.3245ZM48.6101 16.0445C48.6101 18.2796 48.1894 20.3469 47.463 22.306L49.3382 23.0014C50.1389 20.8418 50.6101 18.5395 50.6101 16.0445H48.6101ZM47.4629 22.3063C46.372 25.2512 44.579 27.9557 42.4914 30.5072L44.0394 31.7736C46.2009 29.1317 48.1413 26.2326 49.3383 23.0011L47.4629 22.3063ZM42.4912 30.5074C40.3959 33.0701 38.0626 35.4141 35.8932 37.7286L37.3524 39.0963C39.4673 36.84 41.8873 34.4058 44.0396 31.7734L42.4912 30.5074ZM35.8991 37.7224C35.8698 37.7531 35.7998 37.8255 35.7015 37.9246L37.1214 39.3331C37.2275 39.2262 37.3068 39.1442 37.3465 39.1025L35.8991 37.7224ZM35.7 37.9261C35.3193 38.3116 34.5378 39.0851 33.5536 40.0621L34.9626 41.4815C35.9394 40.5118 36.733 39.7263 37.123 39.3315L35.7 37.9261ZM33.5536 40.0621C32.0834 41.5215 30.1682 43.4225 28.4886 45.1213L29.9108 46.5275C31.5827 44.8365 33.4911 42.9422 34.9626 41.4815L33.5536 40.0621ZM28.4885 45.1214C27.6491 45.9705 26.8648 46.7713 26.2208 47.4475L27.6689 48.8269C28.2999 48.1644 29.0738 47.3741 29.9108 46.5275L28.4885 45.1214ZM26.2227 47.4454C25.899 47.7833 25.6106 48.0905 25.365 48.3586L26.8397 49.7096C27.0732 49.4548 27.3511 49.1587 27.667 48.8289L26.2227 47.4454ZM25.364 48.3597C25.1191 48.6279 24.9128 48.8621 24.7496 49.0609L26.2956 50.3297C26.4269 50.1698 26.6066 49.9648 26.8408 49.7085L25.364 48.3597ZM24.7943 50.3806L25.293 50.9107L26.7497 49.5402L26.251 49.0101L24.7943 50.3806ZM26.7497 50.9107L27.2484 50.3806L25.7917 49.0101L25.293 49.5402L26.7497 50.9107ZM27.2943 49.0624C27.0641 48.7808 26.7383 48.4208 26.3455 47.9997L24.8829 49.3638C25.2735 49.7825 25.5604 50.1014 25.7459 50.3282L27.2943 49.0624ZM26.3442 47.9983C25.6501 47.257 24.7035 46.2848 23.666 45.2338L22.2426 46.6387C23.2776 47.6872 24.209 48.6441 24.8843 49.3653L26.3442 47.9983ZM23.6657 45.2334C22.1079 43.6569 20.3324 41.892 18.8915 40.4612L17.4823 41.8804C18.9238 43.3118 20.6929 45.0703 22.243 46.6391L23.6657 45.2334ZM18.8913 40.461C18.1696 39.7449 17.5329 39.1141 17.0478 38.6307L15.6362 40.0475C16.1232 40.5327 16.7629 41.1665 17.4825 41.8806L18.8913 40.461ZM17.0466 38.6296C16.8041 38.3887 16.6008 38.186 16.4444 38.0288L15.0267 39.4396C15.1872 39.6009 15.3939 39.8069 15.6374 40.0487L17.0466 38.6296ZM16.4455 38.03C16.2904 37.8736 16.184 37.7641 16.1461 37.7242L14.6951 39.1007C14.7488 39.1573 14.8679 39.2795 15.0255 39.4384L16.4455 38.03ZM16.1501 37.7284C13.2557 34.6415 10.0583 31.4833 7.57842 27.9027L5.93427 29.0415C8.52333 32.7796 11.8728 36.0906 14.6911 39.0964L16.1501 37.7284ZM7.5781 27.9023C6.34524 26.1244 5.30738 24.2675 4.58051 22.3062L2.70515 23.0012C3.50405 25.1569 4.63155 27.1629 5.93459 29.042L7.5781 27.9023ZM4.58045 22.306C3.85402 20.3469 3.43332 18.2795 3.43265 16.0442L1.43265 16.0448C1.43339 18.5396 1.90448 20.8418 2.70521 23.0014L4.58045 22.306ZM3.43265 16.0445C3.43265 15.5509 3.49527 14.9634 3.61606 14.3235L1.65076 13.9526C1.51373 14.6785 1.43265 15.3943 1.43265 16.0445H3.43265ZM3.61606 14.3235C3.79735 13.3629 4.10221 12.3196 4.46682 11.3259L2.58921 10.637C2.19587 11.709 1.85689 12.8603 1.65075 13.9526L3.61606 14.3235ZM4.46673 11.3261C4.83135 10.3332 5.24815 9.40673 5.63759 8.67863L3.87402 7.73533C3.43648 8.55334 2.98263 9.56558 2.5893 10.6368L4.46673 11.3261ZM5.63776 8.67832C6.52283 7.02219 7.76256 5.74461 9.19288 4.87748L8.15604 3.16722C6.41509 4.22268 4.92592 5.76703 3.87385 7.73565L5.63776 8.67832ZM9.19322 4.87727C10.6231 4.00964 12.2487 3.55266 13.8963 3.55266V1.55266C11.8781 1.55266 9.89429 2.11248 8.1557 3.16743L9.19322 4.87727ZM13.8963 3.55266C14.4335 3.55266 14.9735 3.60113 15.5095 3.70013L15.8728 1.7334C15.2155 1.61199 14.5538 1.55266 13.8963 1.55266V3.55266ZM15.5103 3.70028C17.3705 4.04224 19.1192 5.00578 20.5979 6.47105L22.0056 5.05038C20.2793 3.33977 18.1776 2.1571 15.8719 1.73324L15.5103 3.70028ZM20.595 6.4681C20.5943 6.46741 20.596 6.46919 20.6009 6.47421C20.6054 6.47886 20.6115 6.48514 20.6189 6.49297C20.6339 6.50865 20.6532 6.52917 20.6756 6.55324L22.1422 5.19343C22.088 5.135 22.0387 5.08335 22.0086 5.05334L20.595 6.4681ZM20.6728 6.55024C20.851 6.74406 21.2001 7.14075 21.6152 7.6339L23.1453 6.34587C22.7193 5.83992 22.3499 5.41931 22.1449 5.19643L20.6728 6.55024ZM21.6156 7.63432C22.2393 8.37439 23 9.31765 23.5882 10.1286L25.2072 8.95443C24.5795 8.08898 23.7849 7.10483 23.1449 6.34544L21.6156 7.63432ZM23.5878 10.1282C23.8826 10.535 24.1211 10.8933 24.2679 11.1483L26.0011 10.1502C25.8042 9.8083 25.52 9.38624 25.2075 8.95488L23.5878 10.1282ZM24.2667 11.1462C24.3022 11.208 24.3312 11.2621 24.3533 11.3055C24.3643 11.3272 24.3729 11.3449 24.3793 11.3586C24.3825 11.3654 24.3849 11.3708 24.3866 11.3747C24.3875 11.3767 24.3881 11.3782 24.3886 11.3792C24.3888 11.3798 24.389 11.3802 24.3891 11.3805C24.3892 11.3807 24.3893 11.3809 24.3893 11.3809L26.2418 10.6271C26.1852 10.4879 26.097 10.3177 26.0023 10.1522L24.2667 11.1462ZM24.3849 11.3699C24.3874 11.3762 24.3887 11.3801 24.3889 11.3805C24.3889 11.3807 24.3885 11.3796 24.3877 11.377C24.3873 11.3757 24.3866 11.3737 24.3858 11.3709C24.3853 11.3695 24.3847 11.3676 24.384 11.3653C24.3834 11.3632 24.3823 11.3596 24.3809 11.3549L26.3008 10.7946C26.2892 10.7547 26.2701 10.699 26.2462 10.6381L24.3849 11.3699ZM24.3409 11.0748V11.0756H26.3409V11.0748H24.3409ZM24.3339 10.9975C24.3339 11.0684 24.3385 11.1346 24.3474 11.1971C24.3519 11.2289 24.3569 11.2551 24.361 11.2749C24.3619 11.2793 24.3627 11.2827 24.363 11.2843C24.3637 11.2875 24.3629 11.2837 24.3623 11.2809C24.3618 11.2788 24.361 11.2747 24.3599 11.2695C24.3589 11.2645 24.3573 11.2558 24.3554 11.2449C24.3536 11.2347 24.3506 11.2164 24.3479 11.1934C24.3465 11.1816 24.3448 11.166 24.3435 11.1476C24.3422 11.1296 24.3409 11.105 24.3409 11.0756H26.3409C26.3409 11.0461 26.3396 11.0213 26.3383 11.0033C26.3369 10.9848 26.3353 10.9691 26.3339 10.9571C26.3311 10.9339 26.3281 10.9154 26.3263 10.9049C26.3243 10.8937 26.3226 10.8847 26.3215 10.8793C26.3204 10.8737 26.3194 10.8691 26.3189 10.8666C26.3181 10.8629 26.3171 10.858 26.3175 10.8601C26.3176 10.8604 26.318 10.8624 26.3186 10.8652C26.3214 10.8787 26.3246 10.8958 26.3274 10.9152C26.3328 10.953 26.3339 10.9814 26.3339 10.9975H24.3339ZM24.3776 10.6265C24.3422 10.7761 24.3339 10.9028 24.3339 10.9975H26.3339C26.3339 11.0093 26.3333 11.0243 26.3316 11.041C26.3298 11.0576 26.3272 11.0731 26.3239 11.0871L24.3776 10.6265ZM24.5819 10.1323C24.4752 10.3049 24.4107 10.4813 24.3758 10.6346L26.3258 11.079C26.321 11.0997 26.3155 11.1167 26.3097 11.1314C26.3037 11.1464 26.2953 11.1641 26.2831 11.1839L24.5819 10.1323ZM24.8058 11.4374L25.363 11.8854L26.6163 10.3269L26.0591 9.87879L24.8058 11.4374ZM25.3716 11.8923L25.9323 12.3331L27.1684 10.7608L26.6077 10.32L25.3716 11.8923ZM27.414 12.0511C27.4105 12.0571 27.4077 12.0617 27.4062 12.0642C27.4046 12.067 27.4032 12.0692 27.4023 12.0705C27.4007 12.0732 27.3995 12.0752 27.3991 12.0758C27.3984 12.0768 27.3981 12.0774 27.3991 12.0758C27.4005 12.0736 27.4035 12.0688 27.4072 12.0628C27.4149 12.0507 27.4253 12.0339 27.4379 12.0131L25.7276 10.9763C25.7212 10.9868 25.7162 10.995 25.7127 11.0005C25.7109 11.0035 25.7095 11.0057 25.7076 11.0085C25.707 11.0096 25.7053 11.0122 25.7037 11.0149C25.7028 11.0162 25.7012 11.0189 25.6992 11.0221C25.698 11.024 25.6929 11.0322 25.6868 11.0428L27.414 12.0511ZM27.2003 10.7082L26.6389 10.2673L25.4038 11.8404L25.9652 12.2812L27.2003 10.7082ZM25.3775 10.2887L24.8288 10.7504L26.1165 12.2807L26.6652 11.819L25.3775 10.2887ZM24.6536 12.0893C24.6485 12.0821 24.6445 12.0762 24.6422 12.0727C24.6397 12.069 24.6377 12.066 24.6365 12.0641C24.6341 12.0605 24.6325 12.058 24.6323 12.0576C24.6319 12.057 24.6319 12.057 24.6325 12.0579C24.6331 12.0589 24.6339 12.0601 24.6351 12.062C24.6397 12.0694 24.648 12.0826 24.6584 12.0992L26.3488 11.0302C26.3409 11.0177 26.3351 11.0085 26.3295 10.9995C26.3272 10.9958 26.3234 10.9898 26.3199 10.9842C26.318 10.9813 26.315 10.9766 26.3115 10.9712C26.3089 10.9672 26.3014 10.9558 26.2917 10.9419L24.6536 12.0893ZM24.6609 12.1031C25.1793 12.9144 26.2804 13.1675 27.0828 12.5136L25.8193 10.9632C25.8905 10.9053 26.0046 10.8683 26.1259 10.8906C26.2439 10.9122 26.3161 10.9791 26.3463 11.0263L24.6609 12.1031ZM27.0845 12.5122C27.8013 11.9253 27.9226 10.8808 27.4624 10.1336L25.7595 11.1825C25.7342 11.1415 25.7337 11.1086 25.7365 11.0895C25.7392 11.0713 25.753 11.0175 25.8176 10.9647L27.0845 12.5122ZM27.6683 10.6374C27.6334 10.4822 27.5683 10.3028 27.4588 10.1278L25.7631 11.1884C25.7495 11.1665 25.7402 11.147 25.7338 11.1308C25.7274 11.1148 25.7217 11.097 25.717 11.0761L27.6683 10.6374ZM27.7094 10.9767C27.7078 10.9002 27.7008 10.782 27.6683 10.6374L25.717 11.0761C25.7144 11.0647 25.7125 11.0527 25.7113 11.041C25.7101 11.0292 25.7098 11.0205 25.7098 11.0184L27.7094 10.9767ZM27.6848 11.2633C27.6964 11.204 27.7077 11.1226 27.7094 11.0132L25.7097 10.9819C25.7098 10.9757 25.7103 10.9617 25.7125 10.9412C25.7136 10.9309 25.7151 10.9198 25.717 10.908C25.7189 10.8955 25.7208 10.8855 25.7216 10.8814L27.6848 11.2633ZM27.6794 11.2894L27.6801 11.2862L25.7264 10.8585L25.7257 10.8617L27.6794 11.2894ZM27.6526 11.3876L27.6547 11.3811L25.7546 10.7571L25.7524 10.7636L27.6526 11.3876ZM27.6675 11.339C27.6656 11.3461 27.6638 11.352 27.6624 11.3564C27.6611 11.361 27.6598 11.3648 27.6589 11.3678C27.657 11.3736 27.6556 11.3777 27.6548 11.38C27.6532 11.3844 27.6527 11.3855 27.6536 11.3833C27.6554 11.3789 27.6599 11.368 27.6671 11.3528L25.8592 10.4975C25.8139 10.5932 25.7686 10.7036 25.7417 10.7993L27.6675 11.339ZM27.6692 11.3483C27.7067 11.268 27.789 11.1168 27.9131 10.9213L26.2246 9.84945C26.0739 10.0867 25.9435 10.3168 25.857 10.502L27.6692 11.3483ZM27.9149 10.9184C28.1335 10.5714 28.4463 10.1311 28.8028 9.65941L27.2072 8.4535C26.8353 8.94555 26.4845 9.43677 26.2227 9.85236L27.9149 10.9184ZM28.8027 9.65952C29.3362 8.95383 29.9469 8.20334 30.4581 7.59819L28.9302 6.30757C28.4031 6.93159 27.7685 7.71112 27.2073 8.4534L28.8027 9.65952ZM30.4594 7.59669C30.7129 7.29535 30.9416 7.03185 31.1224 6.82698L29.6227 5.50371C29.4329 5.71876 29.1939 5.99422 28.929 6.30907L30.4594 7.59669ZM31.1223 6.82699C31.2149 6.72213 31.2855 6.64303 31.339 6.58595L29.8794 5.21864C29.8033 5.29993 29.7147 5.39941 29.6227 5.5037L31.1223 6.82699ZM31.3502 6.5738C31.4049 6.51344 31.4459 6.4708 31.4556 6.46092L30.0277 5.06052C29.9979 5.09086 29.9389 5.15279 29.8682 5.23079L31.3502 6.5738ZM30.7416 6.76072H30.7423V4.76072H30.7416V6.76072ZM31.4463 6.47092C32.9237 5.00651 34.673 4.04221 36.5324 3.70027L36.1707 1.73326C33.8657 2.15713 31.7633 3.34066 30.0383 5.05051L31.4463 6.47092ZM36.533 3.70017C37.0699 3.60112 37.61 3.55266 38.1471 3.55266V1.55266C37.4896 1.55266 36.828 1.61199 36.1702 1.73336L36.533 3.70017ZM38.1471 3.55266C39.7947 3.55266 41.4204 4.00963 42.8511 4.87737L43.8883 3.16733C42.1491 2.11249 40.1654 1.55266 38.1471 1.55266V3.55266ZM42.8508 4.87718C44.2809 5.74533 45.5207 7.02237 46.4057 8.67832L48.1696 7.73565C47.1174 5.76684 45.6283 4.22356 43.8886 3.16752L42.8508 4.87718ZM48.2876 8.20698V8.20618H46.2876V8.20698H48.2876Z" fill="#289CB0" mask="url(#path-1-outside-1_43_427)"/>
</g>
</g>
</svg>
