<svg width="48" height="50" viewBox="0 0 48 50" fill="none" xmlns="http://www.w3.org/2000/svg">
<path d="M32.3725 29.9064C29.4918 33.4056 29.4918 36.3908 29.4918 36.3908V38.4155H19.0489V36.3908C19.0489 36.3908 19.0489 33.4056 16.1683 29.9064C16.1683 29.9064 12.6024 25.7436 14.6142 20.3452C16.5721 15.0899 21.1469 13.4328 24.0371 13.4328C24.1159 13.4328 24.194 13.4344 24.2704 13.4369C24.3468 13.4344 24.424 13.4328 24.5029 13.4328C27.3939 13.4328 31.9686 15.0899 33.9266 20.3452C35.9384 25.7436 32.3725 29.9064 32.3725 29.9064ZM36.4364 24.2015C36.5047 22.6731 36.261 21.1512 35.7116 19.6791C35.1734 18.2328 34.4277 16.9361 33.4946 15.8227C32.6564 14.8237 31.6686 13.9718 30.5585 13.2921C29.5836 12.6952 28.5282 12.2383 27.4229 11.9358C26.4479 11.6679 25.4384 11.5264 24.5029 11.5264C24.4256 11.5264 24.3476 11.528 24.2704 11.5296C24.1932 11.528 24.1151 11.5264 24.0371 11.5264C23.1024 11.5264 22.0928 11.6679 21.1171 11.9358C20.0126 12.2383 18.958 12.6944 17.9815 13.2921C16.8714 13.9718 15.8836 14.8229 15.0462 15.8227C14.1139 16.9361 13.3674 18.2328 12.8284 19.6791C12.2798 21.1512 12.0361 22.6731 12.1052 24.2015C12.1591 25.4178 12.4109 26.6341 12.8517 27.8166C13.562 29.7198 14.5338 30.9232 14.7059 31.1275C15.9889 32.6897 16.589 34.1039 16.8666 35.0161C17.1183 35.8462 17.1441 36.3868 17.1441 36.3908V38.9561C17.1441 39.7106 17.7554 40.322 18.5092 40.322H30.0316C30.7853 40.322 31.3967 39.7106 31.3967 38.9561V36.4109C31.3999 36.3458 31.4329 35.7537 31.7265 34.8528C32.0105 33.9768 32.6082 32.6213 33.8349 31.1275C34.007 30.9232 34.9788 29.7198 35.6891 27.8166C36.1299 26.6341 36.3817 25.4178 36.4364 24.2015Z" fill="#289CB0"/>
<mask id="mask0_43_442" style="mask-type:luminance" maskUnits="userSpaceOnUse" x="23" y="0" width="3" height="8">
<path d="M23.2891 0H25.3484V7.81891H23.2891V0Z" fill="white"/>
</mask>
<g mask="url(#mask0_43_442)">
<path d="M25.226 0.985458C25.226 0.459371 24.7996 0.0322266 24.2735 0.0322266C23.7475 0.0322266 23.3203 0.459371 23.3203 0.985458V7.6267H25.226V0.985458Z" fill="#289CB0"/>
</g>
<mask id="mask1_43_442" style="mask-type:luminance" maskUnits="userSpaceOnUse" x="40" y="22" width="8" height="3">
<path d="M40.2891 22.646H47.8819V24.7005H40.2891V22.646Z" fill="white"/>
</mask>
<g mask="url(#mask1_43_442)">
<path d="M46.9271 22.7024H40.2891V24.6089H46.9271C47.4532 24.6089 47.8795 24.1817 47.8795 23.6556C47.8795 23.1287 47.4532 22.7024 46.9271 22.7024Z" fill="#289CB0"/>
</g>
<path d="M36.2763 34.3154L34.9297 35.6636L39.6226 40.359C39.9943 40.7314 40.5976 40.7314 40.9692 40.359C41.3417 39.9866 41.3417 39.3832 40.9692 39.0116L36.2763 34.3154Z" fill="#289CB0"/>
<path d="M40.9692 8.29909C41.3417 7.92665 41.3417 7.32334 40.9692 6.9517C40.5976 6.57925 39.9943 6.57925 39.6226 6.9517L34.9297 11.6471L36.2763 12.9953L40.9692 8.29909Z" fill="#289CB0"/>
<mask id="mask2_43_442" style="mask-type:luminance" maskUnits="userSpaceOnUse" x="0" y="22" width="9" height="3">
<path d="M0.664062 22.646H8.45884V24.7053H0.664062V22.646Z" fill="white"/>
</mask>
<g mask="url(#mask2_43_442)">
<path d="M8.25372 22.7024H1.61649C1.0904 22.7024 0.664062 23.1287 0.664062 23.6556C0.664062 24.1817 1.0904 24.6089 1.61649 24.6089H8.25372V22.7024Z" fill="#289CB0"/>
</g>
<path d="M7.5756 39.0116C7.20397 39.3832 7.20397 39.9866 7.5756 40.359C7.94805 40.7314 8.55056 40.7314 8.923 40.359L13.6168 35.6636L12.2694 34.3154L7.5756 39.0116Z" fill="#289CB0"/>
<path d="M12.2694 12.9953L13.6168 11.6471L8.923 6.9517C8.55056 6.57925 7.94805 6.57925 7.5756 6.9517C7.20397 7.32334 7.20397 7.92665 7.5756 8.29909L12.2694 12.9953Z" fill="#289CB0"/>
<path d="M24.0852 15.8687C24.0482 15.3136 23.5398 14.9155 22.992 15.0064C20.4436 15.4311 18.867 16.7101 17.9652 17.7727C17.4834 18.339 17.1447 18.9013 16.9139 19.3607C16.646 19.8924 16.9316 20.5359 17.5059 20.6904L17.5325 20.6976C17.9612 20.8134 18.4133 20.6115 18.6136 20.2149C19.126 19.1966 20.4267 17.3713 23.3001 16.8879C23.7779 16.8074 24.1198 16.3827 24.0876 15.8985L24.0852 15.8687Z" fill="#289CB0"/>
<path d="M29.6075 41.2141H18.8718C18.3642 41.2141 17.9531 41.6405 17.9531 42.1665C17.9531 42.6934 18.3642 43.1206 18.8718 43.1206H29.6075C30.1151 43.1206 30.5269 42.6934 30.5269 42.1665C30.5269 41.6405 30.1151 41.2141 29.6075 41.2141Z" fill="#289CB0"/>
<path d="M29.6075 44.012H18.8718C18.3642 44.012 17.9531 44.4391 17.9531 44.9652C17.9531 45.4921 18.3642 45.9184 18.8718 45.9184H29.6075C30.1151 45.9184 30.5269 45.4921 30.5269 44.9652C30.5269 44.4391 30.1151 44.012 29.6075 44.012Z" fill="#289CB0"/>
<mask id="mask3_43_442" style="mask-type:luminance" maskUnits="userSpaceOnUse" x="18" y="46" width="12" height="4">
<path d="M18.9609 46.7397H29.4634V50H18.9609V46.7397Z" fill="white"/>
</mask>
<g mask="url(#mask3_43_442)">
<path d="M29.0752 46.8105H19.4037C19.1213 46.8105 18.9798 47.1524 19.1792 47.3519L20.7816 48.9551C21.2506 49.4241 21.8539 49.7354 22.5079 49.84C22.9544 49.9108 23.5327 49.9671 24.239 49.9671C24.9461 49.9671 25.5245 49.9108 25.9709 49.84C26.6249 49.7354 27.2282 49.4241 27.6972 48.9551L29.2988 47.3519C29.4991 47.1524 29.3575 46.8105 29.0752 46.8105Z" fill="#289CB0"/>
</g>
</svg>
