<svg width="35" height="35" viewBox="0 0 35 35" fill="none" xmlns="http://www.w3.org/2000/svg">
<path fill-rule="evenodd" clip-rule="evenodd" d="M18.9619 0.036916C17.684 -0.0695612 16.4282 0.0424235 15.2825 0.528914C14.8915 0.695973 14.5169 0.903421 14.1626 1.15676C13.7605 1.44499 13.2519 1.53678 12.7837 1.3789C10.1564 0.49587 8.14781 0.828152 6.67716 1.75524C5.48742 2.50609 4.71263 3.60574 4.25179 4.61727C4.07369 5.0083 3.74872 5.31672 3.34847 5.4746C2.2744 5.90051 1.33069 6.92856 0.671566 8.24668C-0.294176 10.178 -0.351093 13.3906 1.38577 16.0232C2.12202 17.1375 3.23464 17.8406 4.27566 18.2482C4.77872 18.4446 5.28363 18.5786 5.7463 18.6576C6.15206 18.7255 6.5009 18.9899 6.66064 19.3699C6.82037 19.7499 7.05905 20.1685 7.37668 20.576C8.26347 21.7142 9.73963 22.1713 11.0946 22.3237C11.9777 22.4247 12.8664 22.4026 13.6246 22.3274C14.0506 22.2851 14.4765 22.4577 14.7446 22.7918C15.2275 23.3958 15.8278 23.8254 16.4356 24.1265C17.4344 24.6185 18.4772 24.7708 19.1418 24.7708H26.5997C26.8237 24.7708 27.0312 24.9324 27.0514 25.1545C27.0734 25.406 26.877 25.6153 26.6309 25.6153H16.2024C15.3266 25.6153 14.5592 26.2762 14.5059 27.1501C14.4472 28.101 15.2018 28.8904 16.14 28.8904H26.5814C26.8145 28.8904 27.0312 29.0575 27.0514 29.2906C27.0753 29.5513 26.8696 29.7716 26.6126 29.7716H16.1289C15.58 29.7716 15.0512 30.1167 14.8052 30.4527C14.5536 30.7941 14.5041 31.2403 14.5041 31.668C14.5041 32.1453 14.7134 32.529 15.0806 32.764C15.4056 32.9714 15.7948 33.0228 16.1289 33.0228H23.5611C23.7704 33.0228 23.9632 33.1734 23.9797 33.3808C23.9999 33.614 23.8163 33.8086 23.5887 33.8086H17.5445C17.2544 33.8086 16.9845 34.005 16.9313 34.2914C16.8615 34.6696 17.1498 35 17.517 35H23.5281C24.3745 35 25.1181 34.3611 25.1695 33.5148C25.2264 32.5951 24.4957 31.8314 23.5887 31.8314H16.1289C15.9215 31.8314 15.8058 31.7745 15.7471 31.7176C15.5414 31.512 15.6296 31.2366 15.6993 31.1411C15.826 30.9667 16.1088 30.9612 16.1289 30.9612H26.5502C27.4223 30.9612 28.1879 30.3022 28.2411 29.432C28.2999 28.4847 27.5471 27.6971 26.6126 27.6971H16.1712C15.9343 27.6971 15.7158 27.5264 15.6956 27.2914C15.6718 27.0271 15.8811 26.8049 16.14 26.8049H26.5685C27.4314 26.8049 28.1879 26.1532 28.2411 25.2922C28.298 24.3541 27.5563 23.5757 26.6309 23.5757H19.1474C18.6314 23.5757 17.774 23.4527 16.9643 23.0544C16.1657 22.6615 15.4404 22.0134 15.0971 20.9615C14.7464 19.8894 14.9337 19.0725 15.277 18.4758C15.6259 17.8737 16.151 17.4735 16.52 17.2917C16.8046 17.1522 16.9643 16.8199 16.8487 16.5262C16.722 16.2013 16.3493 16.0562 16.039 16.2013C15.4827 16.4638 14.7409 17.0237 14.247 17.8792C13.8505 18.564 13.6228 19.4231 13.7587 20.4346C13.8101 20.8147 13.5273 21.1414 13.1454 21.169C12.5487 21.2094 11.8859 21.2094 11.2323 21.1359C9.98382 20.9946 8.90791 20.5962 8.31855 19.8398C7.83201 19.2138 7.60802 18.6227 7.53825 18.094C7.53825 18.0793 7.53825 18.0664 7.53458 18.0518C7.53458 18.0389 7.53091 18.0242 7.52907 18.0114C7.49602 17.6919 7.51805 17.3964 7.5713 17.1302C7.72001 16.3757 8.11843 15.8359 8.27082 15.6836C8.65822 15.2962 9.79471 14.4205 11.4655 14.3599H11.4673C12.3449 14.6904 13.397 14.8262 14.6051 14.5821C14.7666 14.549 14.9337 14.6133 15.0365 14.7436C15.3395 15.1255 15.7709 15.4155 16.3327 15.5936C16.6155 15.6836 16.9386 15.5697 17.0708 15.3035C17.2397 14.9639 17.0598 14.5711 16.7146 14.4646C16.3309 14.3471 16.1051 14.1745 15.9674 14.002C15.8811 13.8936 15.8187 13.7725 15.7764 13.6366C15.7764 13.633 15.7764 13.6311 15.7746 13.6274C15.7489 13.5448 15.7324 13.4549 15.7214 13.3631C15.6644 12.8601 15.8278 12.2873 16.017 11.8981C16.1583 11.6081 16.0849 11.2409 15.8076 11.0775C15.5084 10.9013 15.1283 11.0169 14.9741 11.3217C14.8199 11.6246 14.6638 12.0395 14.5812 12.4984C14.4747 13.0877 13.9606 13.5136 13.3621 13.5081C12.7635 13.5026 12.266 13.3888 11.8125 13.2107C11.8015 13.2052 11.7905 13.2015 11.7776 13.1979C10.7347 12.7775 10.0352 12.0156 9.7231 11.4667C9.56521 11.1877 9.22187 11.0445 8.93178 11.1803C8.61782 11.3272 8.49665 11.7072 8.66189 12.0064C8.8051 12.2689 9.01257 12.5645 9.28062 12.8619C9.52481 13.1318 9.43485 13.5595 9.10253 13.7101C8.29285 14.0772 7.72002 14.5435 7.42809 14.8373C7.12698 15.1383 6.60188 15.8855 6.40359 16.8952V16.908C6.33199 17.2587 5.98866 17.49 5.63981 17.4129C5.34972 17.3486 5.03577 17.255 4.71263 17.1302C3.81849 16.7814 2.94271 16.2049 2.38273 15.3586C0.880871 13.0822 0.963492 10.323 1.74012 8.77172C2.53512 7.18007 3.59633 6.44207 4.43906 6.44574C4.70528 6.44574 4.93479 6.27685 5.00455 6.02167C5.28179 4.98811 6.00151 3.58371 7.31426 2.75576C8.36629 2.09119 9.88467 1.74606 12.042 2.38492C12.3743 2.48406 12.5249 2.86958 12.3468 3.16698L12.3431 3.17249C11.7354 4.18402 11.6876 5.28 11.8841 6.20158C11.9741 6.62198 12.1154 7.01852 12.288 7.36916C12.4863 7.7712 12.4533 8.24301 12.2421 8.63771C12.0218 9.04893 11.8878 9.46566 11.8217 9.79611C11.7629 10.0917 11.9116 10.4056 12.1962 10.5066C12.5506 10.6332 12.9196 10.4111 12.9857 10.055C13.0555 9.68228 13.2574 9.13338 13.6154 8.72582C13.9459 8.34765 14.3958 8.09431 15.0549 8.18426C15.3395 8.22281 15.6296 8.08513 15.7305 7.8171C15.8701 7.4481 15.6332 7.06625 15.2642 7.01117C14.9594 6.96528 14.6767 6.96344 14.4141 7.00016C13.8174 7.08094 13.2427 6.7101 13.0903 6.12815C13.0757 6.07124 13.061 6.01249 13.0481 5.95375C12.8994 5.25063 12.9471 4.47959 13.3621 3.78749C13.5953 3.40013 13.8449 3.06601 14.113 2.77779C14.1204 2.77044 14.1259 2.76494 14.1314 2.75759C14.6234 2.23255 15.1669 1.86539 15.7489 1.61755C16.6632 1.22836 17.7116 1.12005 18.8628 1.21551C19.678 1.28343 20.5427 1.71301 21.3083 2.2711C22.0684 2.82552 22.667 3.45704 22.9442 3.83522C23.0819 4.02247 23.3188 4.11242 23.5464 4.06469C25.656 3.62043 29.0398 4.2703 30.303 7.34162C30.9511 8.91859 30.7161 9.9136 30.3342 10.5121C29.9302 11.1454 29.3042 11.43 29.0269 11.4777C27.4737 11.6356 26.3243 11.2023 25.5514 10.2606C25.2741 9.92278 25.1419 9.50421 25.1015 9.09115C25.0611 8.67259 25.1217 8.31093 25.1786 8.13653C25.2925 7.79874 25.0868 7.43158 24.7252 7.36181C24.4185 7.30123 24.1248 7.51052 24.033 7.80975C23.9265 8.15672 23.8622 8.66341 23.9155 9.20681C23.9706 9.78325 24.1633 10.4497 24.6297 11.0169C25.7129 12.335 27.2974 12.8546 29.1646 12.66C29.1701 12.66 29.1756 12.66 29.1812 12.6581C29.1848 12.6581 29.1885 12.6581 29.1903 12.6581C29.6842 12.5829 30.415 12.2488 30.9933 11.6044C31.2063 11.3676 31.5625 11.329 31.8103 11.5273C32.0013 11.6796 32.2106 11.8559 32.3575 12.0083C33.0294 12.7059 33.672 13.7266 33.7932 15.0888C34.0154 17.5708 32.5209 19.9684 30.4278 20.3704C29.5906 20.5319 28.7093 20.3465 27.9639 20.0142C27.8152 19.9482 27.6775 19.8784 27.5471 19.805C27.1836 19.603 27.0477 19.1422 27.2515 18.7806C27.4241 18.474 27.5526 18.1123 27.6132 17.6846C27.6554 17.3909 27.492 17.0916 27.2093 17.0035C26.8476 16.8915 26.4877 17.132 26.4382 17.49C26.3335 18.25 25.9498 18.6172 25.5201 18.8118C25.0685 19.0156 24.5379 19.0339 24.178 18.9788C23.8622 18.9311 23.5354 19.1074 23.4601 19.4176C23.3775 19.7572 23.5997 20.0895 23.9375 20.1464C24.257 20.2015 24.6829 20.2199 25.1327 20.1519C25.5826 20.084 25.9975 20.1886 26.3464 20.4475C26.675 20.6898 27.0606 20.9156 27.4737 21.101C28.3696 21.5013 29.5043 21.7601 30.6481 21.5398C33.5086 20.9891 35.2363 17.8847 34.9738 14.9823C34.8214 13.2842 34.019 12.0229 33.2094 11.1821C32.8054 10.7617 32.3942 10.4423 32.0508 10.2183H32.049C31.8985 10.1192 31.8213 9.94297 31.847 9.7649C31.9682 8.96632 31.8581 8.00802 31.3972 6.89001C30.0367 3.58738 26.765 2.63276 24.3433 2.76677C23.9173 2.79064 23.5024 2.6401 23.1994 2.33903C22.8634 2.00307 22.4558 1.64325 22.0005 1.31281C21.1541 0.697809 20.08 0.128707 18.9527 0.0332443L18.9619 0.036916Z" fill="#11414A"/>
</svg>
