<svg width="1280" height="485" viewBox="0 0 1280 485" fill="none" xmlns="http://www.w3.org/2000/svg">
<mask id="mask0_1221_8755" style="mask-type:luminance" maskUnits="userSpaceOnUse" x="0" y="37" width="1280" height="448">
<path d="M0 37.3335H1280V484.448H0V37.3335Z" fill="white"/>
</mask>
<g mask="url(#mask0_1221_8755)">
<path d="M0.09375 113.479C458.723 -107.068 894.117 218.573 1033.56 304.766C1173.01 390.953 1279.9 420.172 1279.9 420.172V484.448H0.09375V113.479Z" fill="#DAEFF3" fill-opacity="0.3"/>
</g>
<mask id="mask1_1221_8755" style="mask-type:luminance" maskUnits="userSpaceOnUse" x="447" y="0" width="833" height="485">
<path d="M447.023 0H1280V484.448H447.023V0Z" fill="white"/>
</mask>
<g mask="url(#mask1_1221_8755)">
<path d="M447.109 484.448C447.109 303.969 751.858 274.714 940.095 274.714C1128.33 274.714 1279.91 24.4064 1279.91 0.661621V484.448H447.109Z" fill="#DAEFF3" fill-opacity="0.2"/>
</g>
<mask id="mask2_1221_8755" style="mask-type:luminance" maskUnits="userSpaceOnUse" x="0" y="162" width="1280" height="323">
<path d="M0 162.667H1280V484.448H0V162.667Z" fill="white"/>
</mask>
<g mask="url(#mask2_1221_8755)">
<path d="M0.09375 220.536C195.546 407.859 360.281 179.927 581.382 164.021C802.431 148.12 1279.9 369 1279.9 369V484.448H0.09375V220.536Z" fill="#DAEFF3" fill-opacity="0.1"/>
</g>
<mask id="mask3_1221_8755" style="mask-type:luminance" maskUnits="userSpaceOnUse" x="249" y="220" width="1031" height="265">
<path d="M249.242 220H1280V484.448H249.242V220Z" fill="white"/>
</mask>
<g mask="url(#mask3_1221_8755)">
<path d="M272.331 484.448C272.331 484.448 191.652 334.646 339.55 242.573C487.442 150.5 879.573 377.052 1018.51 371.547C1157.45 366.078 1279.9 220.537 1279.9 220.537V484.448H272.331Z" fill="#DAEFF3" fill-opacity="0.4"/>
</g>
</svg>
