<svg width="29" height="50" viewBox="0 0 29 50" fill="none" xmlns="http://www.w3.org/2000/svg">
<g id="icon_rocket">
<g id="Clip path group">
<mask id="mask0_43_551" style="mask-type:luminance" maskUnits="userSpaceOnUse" x="0" y="0" width="29" height="50">
<g id="2311a50290">
<path id="Vector" d="M0.835938 0H28.8601V50H0.835938V0Z" fill="white"/>
</g>
</mask>
<g mask="url(#mask0_43_551)">
<g id="Group">
<path id="Vector_2" d="M14.8868 49.7781C14.4768 50.0049 13.9465 50.0114 13.6996 49.5529C13.61 49.3867 13.6318 49.122 13.5898 48.9355C13.2767 47.5522 12.5511 46.5191 11.5858 45.5038C11.2582 45.1592 10.8942 44.8404 10.5988 44.4659C9.5843 43.1778 9.34137 41.2957 9.88453 39.7607C7.01457 40.433 4.68696 44.3941 3.55544 46.8081L2.662 48.7612C2.56596 48.9751 2.50624 49.2212 2.38437 49.4214C1.93402 50.1599 0.884822 49.808 0.86868 49.0009L0.870294 35.9682C0.870294 35.2757 0.836397 34.5631 0.88805 33.8739C1.06964 31.4785 2.31173 29.5859 3.51508 27.5787L5.75069 23.7047C5.89919 23.4351 5.95649 23.377 5.9234 23.0703L5.73858 20.6895C5.54892 13.0238 7.91284 6.39048 13.5591 0.949174C13.8973 0.623115 14.2686 0.170346 14.7181 0.0145797C14.8497 0.00489497 15.0143 -0.00882554 15.1362 0.049284L15.1677 0.0654255C15.3218 0.140484 15.4267 0.266387 15.547 0.385028L15.9868 0.799058C18.2111 2.79899 20.7357 6.23956 21.8624 9.07643L22.5177 10.7172C23.7219 14.0456 24.1238 17.6403 23.9164 21.1608L23.7872 22.9703C23.763 23.2229 23.717 23.2979 23.8413 23.5279L27.5417 29.8086C28.2722 31.1096 28.7806 32.6334 28.846 34.1313L28.8508 48.7983C28.846 49.2366 28.7798 49.5021 28.3537 49.7386C27.6426 50.1332 27.2746 49.3689 27.0559 48.829L25.7686 45.9752C24.466 43.4288 22.7332 40.6791 19.864 39.7478L20.0004 40.2054C20.6501 41.943 19.5412 44.1592 18.3613 45.411C17.5518 46.2689 17.4953 46.3569 16.9343 47.3641C16.4105 48.3044 15.7762 49.1494 14.8868 49.7781ZM14.8472 2.05083C13.7109 3.0968 12.7069 4.26545 11.8102 5.51884C11.7005 5.67219 11.5084 5.87073 11.4398 6.03698L14.9215 6.05393L17.1321 6.05474C17.5114 6.05474 17.9174 6.08379 18.2935 6.03618C17.2975 4.58102 16.17 3.22432 14.8472 2.05083ZM11.7343 7.66728L10.5092 7.67212C10.3712 7.67293 10.3381 7.886 10.2824 7.98769L9.7215 9.03769C7.89751 12.7607 7.19132 16.8357 7.4294 20.9518L7.47137 22.0123L8.18321 27.0145L9.14686 32.3993C9.17511 32.5252 9.17914 32.6568 9.20659 32.7819L9.46001 34.1531C9.49391 34.3565 9.48826 34.5825 9.55121 34.7762L17.8084 34.7721L20.1691 34.7738L22.2328 21.9808C22.2917 21.7169 22.2756 21.4102 22.2804 21.139L22.1876 16.8776C21.964 14.4871 21.3999 12.2345 20.4548 10.0191L19.3362 7.7036C19.1982 7.63742 18.9068 7.6697 18.7478 7.6697L11.7343 7.66728ZM23.374 26.0339C23.186 26.8539 23.0722 27.7118 22.9325 28.5423L21.9648 33.9941C21.7542 34.9787 21.847 36.0126 20.5864 36.4412L20.5444 36.4557C20.345 36.5243 20.111 36.5065 19.9028 36.5057L19.8915 37.4912C19.8931 38.0416 19.7664 37.931 20.2466 38.0763C22.7485 38.8293 24.558 40.8494 25.9817 42.9349L26.9631 44.6725C27.0446 44.842 27.1527 45.0164 27.202 45.1963L27.2108 35.4226C27.2108 34.8835 27.2415 34.3169 27.1431 33.7851L27.0656 33.2338C26.8243 31.9022 26.1286 30.694 25.4393 29.5495L24.102 27.3018C23.8582 26.887 23.5903 26.4633 23.374 26.0339ZM6.34146 26.0581L4.02596 29.9854C2.68702 32.3186 2.50059 33.1507 2.49897 35.697L2.50866 45.2327C2.7645 44.4264 3.27861 43.6088 3.75559 42.9204C4.89761 41.0827 7.20746 38.6138 9.44467 38.0924C9.56331 38.065 9.71747 38.0561 9.82642 38.0045L9.82561 36.5001C9.5851 36.4928 9.3333 36.5033 9.10167 36.4339L9.06858 36.4242C8.03713 36.1208 7.90719 34.9303 7.76111 34.0514L6.46253 26.8402C6.42459 26.5755 6.39957 26.3204 6.34146 26.0581ZM12.3292 36.379C12.2121 36.3806 11.514 36.3637 11.468 36.4113L11.4664 37.5719C11.4664 37.7995 11.4527 38.0359 11.4825 38.2611L17.3468 38.2579L18.2523 38.2652L18.2531 36.4057C18.0933 36.3516 17.8423 36.3798 17.6704 36.379H12.3292ZM12.3187 39.939L11.6415 39.9495C11.5447 40.0585 11.5181 40.1763 11.4672 40.3079C10.6956 42.3046 11.8215 43.2884 13.0588 44.6177C13.5567 45.1528 14.2024 45.9397 14.5042 46.6031C14.6334 46.8855 14.7383 47.2084 14.8989 47.4715C15.2734 46.984 15.5244 46.4239 15.8319 45.8953C16.9448 44.0462 18.9827 43.0979 18.3677 40.5677C18.3136 40.3458 18.1918 40.1739 18.1135 39.9657C17.4614 39.8882 16.7608 39.9374 16.1031 39.9374L12.3187 39.939Z" fill="#289CB0"/>
</g>
</g>
</g>
<path id="Vector_3" d="M15.2136 25.3268C10.46 25.6109 7.5803 19.9477 10.7424 16.3231C11.6609 15.2707 13.0127 14.5322 14.4162 14.437C17.852 14.1448 20.6283 17.1842 20.2619 20.5385C19.9851 23.0638 17.7632 25.1985 15.2136 25.3268ZM14.6785 16.0987C12.8134 16.3578 11.3574 17.545 11.1105 19.4481C11.0814 19.6733 11.0564 19.9065 11.0895 20.1325L11.1024 20.2084C11.1548 20.5223 11.1839 20.7959 11.2743 21.1074L11.3163 21.218C11.9579 22.8088 13.4017 23.7232 15.0958 23.678C15.388 23.6392 15.6858 23.6013 15.9674 23.5117C20.1965 22.1647 18.956 15.8623 14.6785 16.0987Z" fill="#289CB0"/>
</g>
</svg>
